<svg width="89" height="195" fill="none" xmlns="http://www.w3.org/2000/svg"><path d="M86.312 2.92h2v-2h-2v2zm0 190.08v2h2v-2h-2zm-30.24 0h-2v2h2v-2zm.288-155.808l1.997.105.268-5.09-3.658 3.55 1.393 1.435zM33.896 53.608l-.958-1.756-.008.005-.009.005.975 1.746zM8.552 63.4l-1.955.42.423 1.97 1.966-.438-.434-1.952zm-5.76-26.784l-.23-1.987-2.189.253.464 2.154 1.955-.42zm19.296-6.336l-.824-1.822-.009.004-.008.003.841 1.815zM44.84 17.32l1.15 1.636-1.15-1.636zm15.552-14.4v-2h-1.034l-.598.844 1.632 1.156zm23.92 0V193h4V2.92h-4zm2 188.08h-30.24v4h30.24v-4zm-28.24 2V52.456h-4V193h4zm0-140.544c0-6.516.096-11.563.285-15.159l-3.994-.21c-.195 3.7-.291 8.828-.291 15.369h4zm-3.105-16.7c-6.39 6.204-13.73 11.57-22.029 16.096l1.916 3.512c8.598-4.69 16.234-10.268 22.899-16.737l-2.786-2.87zM32.921 51.863c-8.098 4.52-16.365 7.71-24.803 9.586l.868 3.904c8.842-1.965 17.47-5.302 25.885-9.998l-1.95-3.492zM10.507 62.979l-5.76-26.783-3.91.84 5.76 26.785 3.91-.841zM3.021 38.603c5.304-.612 11.962-2.826 19.908-6.508l-1.682-3.63C13.45 32.08 7.243 34.09 2.563 34.63l.458 3.974zm19.891-6.5A141.4 141.4 0 0045.99 18.955l-2.3-3.272c-7 4.918-14.474 9.176-22.426 12.774l1.648 3.644zM45.99 18.955c7.201-5.06 12.587-10.013 16.034-14.88L58.76 1.764c-3.08 4.35-8.063 8.996-15.07 13.92l2.3 3.272zM60.392 4.92h25.92v-4h-25.92v4z" fill="#FCC8AA"/></svg>