<svg width="144" height="197" fill="none" xmlns="http://www.w3.org/2000/svg"><path d="M9.16 172.248l-1.147-1.638-.853.597v1.041h2zm58.176-44.352l1.317 1.505.006-.005.006-.005-1.329-1.495zM97 94.488l-1.712-1.034-.006.01L97 94.488zm-.576-56.16l-1.414 1.414.01.01.011.011 1.393-1.435zm-54.72 2.304l-1.485-1.34-.009.01-.009.01 1.503 1.32zM29.896 73.464l-.84 1.815 2.637 1.22.198-2.898-1.995-.137zM3.112 61.08l-1.989-.21-.15 1.425 1.3.6.839-1.815zm21.024-43.2l1.315 1.507-1.315-1.507zm83.232-7.776l-.948 1.76.013.008.013.007.922-1.775zm22.752 21.312l-1.734.996 1.734-.996zm-12.672 82.656l-1.542-1.273-.009.01 1.551 1.263zM50.056 169.08l-1.078-1.684-.922.59v1.094h2zm0 .576h-2v2.166l2.16-.172-.16-1.994zm91.296-1.152h2v-2h-2v2zm0 26.496v2h2v-2h-2zM9.16 195h-2v2h2v-2zm1.147-21.114c24.986-17.49 44.444-32.321 58.346-44.485l-2.634-3.01c-13.746 12.028-33.072 26.765-58.006 44.219l2.294 3.276zm58.358-44.495c13.898-12.354 23.953-23.647 30.053-33.879l-3.436-2.048c-5.804 9.736-15.525 20.715-29.275 32.937l2.658 2.99zm30.047-33.87c6.312-10.453 9.504-21.271 9.504-32.425h-4c0 10.35-2.952 20.46-8.928 30.358l3.424 2.068zm9.504-32.425c0-10.646-3.435-19.444-10.399-26.203l-2.786 2.87c6.092 5.913 9.185 13.627 9.185 23.333h4zM97.838 36.914c-6.797-6.798-16.092-10.09-27.622-10.09v4c10.742 0 18.92 3.044 24.794 8.918l2.828-2.828zm-27.622-10.09c-12.393 0-22.465 4.122-29.997 12.468l2.97 2.68c6.676-7.398 15.612-11.148 27.027-11.148v-4zM40.201 39.312c-7.286 8.299-11.32 19.71-12.3 34.015l3.99.274c.94-13.727 4.778-24.203 11.316-31.65L40.2 39.313zM30.735 71.65L3.951 59.265l-1.678 3.63L29.057 75.28l1.678-3.63zM5.101 61.289c1.875-17.814 8.689-31.722 20.35-41.902l-2.63-3.014C10.29 27.313 3.088 42.205 1.123 60.871l3.978.418zm20.35-41.902C37.104 9.214 52.535 4.04 71.944 4.04v-4C51.801.04 35.36 5.426 22.821 16.373l2.63 3.014zM71.944 4.04c13.368 0 24.837 2.635 34.476 7.825l1.896-3.522C97.987 2.781 85.84.04 71.944.04v4zm34.502 7.839c9.673 5.022 16.962 11.868 21.94 20.533l3.468-1.992c-5.39-9.383-13.269-16.745-23.564-22.091l-1.844 3.55zm21.94 20.533c4.994 8.695 7.51 18.522 7.51 29.532h4c0-11.646-2.668-22.17-8.042-31.524l-3.468 1.992zm7.51 29.532c0 17.697-6.6 34.636-19.99 50.855l3.084 2.546c13.874-16.805 20.906-34.618 20.906-53.401h-4zm-19.999 50.865c-13.241 16.268-35.497 34.468-66.92 54.587l2.157 3.368c31.554-20.201 54.226-38.673 67.865-55.429l-3.102-2.526zM48.056 169.08v.576h4v-.576h-4zm2.16 2.57c9.538-.763 19.948-1.146 31.232-1.146v-4c-11.372 0-21.89.385-31.551 1.158l.319 3.988zm31.232-1.146h59.904v-4H81.448v4zm57.904-2V195h4v-26.496h-4zm2 24.496H9.16v4h132.192v-4zM11.16 195v-22.752h-4V195h4z" fill="#FCC8AA"/></svg>