<svg width="143" height="200" fill="none" xmlns="http://www.w3.org/2000/svg"><path d="M107.792 8.952l-.894 1.789.022.01.022.011.85-1.81zm21.312 18.144l-1.696 1.06 1.696-1.06zm1.728 49.824l-1.779-.914-.005.01-.005.01 1.789.894zm-13.536 16.128l-1.135-1.646-.014.009-.013.01 1.162 1.627zm-16.704 5.76v-2h-2v2h2zm0 .576h-2v2h2v-2zm19.872 5.472l-1.045 1.705.012.008.012.007 1.021-1.72zm11.52 66.816l1.64 1.144-1.64-1.144zm-24.48 19.296l-.8-1.833-.012.005.812 1.828zM3.248 151.8l-.865-1.803-1.632.783.617 1.702 1.88-.682zm28.224-13.536l1.936-.501-.608-2.354-2.193 1.052.865 1.803zm13.824 25.056l-1.32 1.502.013.012.013.011 1.294-1.525zm54.432-.288l1.298 1.522.013-.011.012-.011-1.323-1.5zm.288-44.64l-1.167 1.624.028.021.03.019 1.109-1.664zm-38.304-6.624h-2v2h2v-2zm0-24.48v-2h-2v2h2zm35.136-51.264l-1.36 1.466.012.011.013.012 1.335-1.489zm-47.52 0l1.255 1.557.006-.005-1.261-1.552zM37.808 56.76l-.756 1.852 2.261.922.46-2.398-1.965-.376zM9.584 45.24l-1.92-.56-.505 1.73 1.67.682.755-1.852zm23.328-31.968l-1.077-1.685-.007.004-.006.004 1.09 1.677zM74.384 4.04c12.826 0 23.64 2.264 32.514 6.7l1.788-3.577C99.129 2.384 87.67.04 74.384.04v4zm32.558 6.722c9.113 4.278 15.899 10.087 20.466 17.394l3.392-2.12c-5.033-8.053-12.454-14.34-22.158-18.894l-1.7 3.62zm20.466 17.394c4.593 7.35 6.896 15.523 6.896 24.572h4c0-9.768-2.497-18.681-7.504-26.692l-3.392 2.12zm6.896 24.572c0 8.748-1.766 16.492-5.251 23.278l3.558 1.828c3.811-7.422 5.693-15.806 5.693-25.106h-4zm-5.261 23.298c-3.327 6.653-7.63 11.753-12.882 15.376l2.27 3.292c5.884-4.057 10.605-9.71 14.19-16.88l-3.578-1.788zM116.134 91.42c-5.089 3.634-10.258 5.387-15.542 5.387v4c6.236 0 12.203-2.087 17.866-6.133l-2.324-3.254zm-17.542 7.387v.576h4v-.576h-4zm2 2.576c6.945 0 13.204 1.731 18.827 5.177l2.09-3.41c-6.281-3.85-13.27-5.767-20.917-5.767v4zm18.851 5.192c5.812 3.451 10.463 8.36 13.951 14.786l3.516-1.908c-3.808-7.014-8.949-12.473-15.425-16.318l-2.042 3.44zm13.951 14.786c3.466 6.385 5.23 13.823 5.23 22.374h4c0-9.113-1.884-17.227-5.714-24.282l-3.516 1.908zm5.23 22.374c0 9.972-2.762 18.882-8.28 26.792l3.28 2.288c6.002-8.602 9-18.316 9-29.08h-4zm-8.28 26.792c-5.52 7.911-13.368 14.125-23.64 18.607l1.6 3.666c10.848-4.734 19.32-11.384 25.32-19.985l-3.28-2.288zm-23.652 18.612c-10.066 4.474-21.78 6.74-35.188 6.74v4c13.856 0 26.142-2.342 36.812-7.084l-1.624-3.656zm-35.188 6.74c-16.886 0-30.75-3.771-41.72-11.178-10.963-7.401-19.204-18.543-24.656-33.584l-3.76 1.364c5.684 15.679 14.387 27.577 26.177 35.536 11.781 7.953 26.477 11.862 43.959 11.862v-4zM4.113 153.603l28.224-13.536-1.73-3.606-28.224 13.536 1.73 3.606zm25.423-14.838c2.944 11.386 7.711 20.144 14.44 26.057l2.64-3.004c-5.943-5.223-10.392-13.169-13.208-24.055l-3.872 1.002zm14.466 26.08c6.826 5.792 16.477 8.539 28.654 8.539v-4c-11.632 0-20.22-2.629-26.066-7.589l-2.588 3.05zm28.654 8.539c11.832 0 21.372-2.862 28.37-8.83l-2.596-3.044c-6.058 5.168-14.566 7.874-25.774 7.874v4zm28.395-8.852c6.996-6.173 10.469-14.322 10.469-24.252h-4c0 8.886-3.055 15.905-9.115 21.252l2.646 3zm10.469-24.252c0-10.771-3.312-18.831-10.395-23.552l-2.218 3.328c5.589 3.727 8.613 10.259 8.613 20.224h4zm-10.337-23.512c-6.663-4.789-17.074-7-30.831-7v4c13.507 0 22.872 2.205 28.497 6.248l2.334-3.248zm-30.831-7h-8.64v4h8.64v-4zm-6.64 2v-24.48h-4v24.48h4zm-2-22.48h7.776v-4h-7.776v4zm7.776 0c12.128 0 21.595-2.486 28.055-7.8 6.534-5.374 9.657-13.362 9.657-23.576h-4c0 9.37-2.829 16.07-8.199 20.487-5.444 4.479-13.833 6.889-25.513 6.889v4zM107.2 57.912c0-9.996-2.913-17.904-9.017-23.377l-2.67 2.978c5.032 4.512 7.687 11.196 7.687 20.399h4zm-8.991-23.354c-5.862-5.443-14.097-8.022-24.401-8.022v4c9.664 0 16.79 2.413 21.68 6.954l2.72-2.932zm-24.401-8.022c-10.502 0-19.15 2.58-25.741 7.936l2.522 3.104c5.697-4.628 13.37-7.04 23.219-7.04v-4zm-25.736 7.931c-6.39 5.154-10.43 12.526-12.228 21.917l3.928.752c1.658-8.657 5.299-15.11 10.812-19.555l-2.512-3.114zm-9.508 20.441L10.34 43.388l-1.512 3.704 28.224 11.52 1.512-3.704zM11.504 45.8c3.905-13.388 11.4-23.637 22.498-30.851l-2.18-3.354C19.88 19.357 11.823 30.42 7.664 44.68l3.84 1.12zm22.485-30.843C45.335 7.704 58.773 4.04 74.384 4.04v-4c-16.26 0-30.47 3.824-42.55 11.547l2.155 3.37z" fill="#FCC8AA"/></svg>