<svg width="50" height="50" fill="none" xmlns="http://www.w3.org/2000/svg"><path d="M49.938 8.869a.78.78 0 00-.073-.147c-.014-.02-.026-.042-.042-.061a.807.807 0 00-.127-.131c-.013-.011-.024-.024-.037-.033l-.008-.008a.852.852 0 00-.199-.103l-.014-.006L25.272.046a.835.835 0 00-.544 0L.562 8.38l-.014.007a.818.818 0 00-.199.102l-.008.008c-.013.01-.024.022-.037.033a.808.808 0 00-.127.13c-.015.02-.028.041-.042.062a.782.782 0 00-.073.147.826.826 0 00-.062.298v31.667c0 .355.226.672.562.788l24.166 8.333h.01a.8.8 0 00.524 0h.01l24.166-8.333a.834.834 0 00.562-.788V9.167a.825.825 0 00-.062-.298zM25 16.619L3.39 9.167l9.527-3.285 21.61 7.452L25 16.619zm0-14.903l21.61 7.451-9.527 3.285L15.473 5 25 1.716zM1.667 10.334l22.5 7.758v29.909l-22.5-7.761V10.334zm36.25 33.5v-6.889l2.673-.921a9.021 9.021 0 006.077-8.524.833.833 0 00-1.105-.787l-3.235 1.116a9.01 9.01 0 00-5.511 5.398 5.065 5.065 0 00-.994-.94 4.934 4.934 0 00-4.525-.656l-3.236 1.12a.833.833 0 00-.561.787 5.005 5.005 0 004.976 5c.56 0 1.115-.095 1.643-.28l2.131-.733v6.886l-10.417 3.59V18.095l22.5-7.761V40.24l-10.416 3.594zm.099-8.683a7.353 7.353 0 014.854-5.745l2.03-.701a7.355 7.355 0 01-4.853 5.745l-2.031.7zm-1.815.625l-2.624.905a3.328 3.328 0 01-4.361-2.567l2.624-.905a3.328 3.328 0 014.36 2.567z" fill="#002519"/><path d="M15.877 17.266l-4.35-1.5a2.41 2.41 0 00-1.57 4.555l4.349 1.5a2.41 2.41 0 001.57-4.555zm-.355 2.881a.73.73 0 01-.673.098l-4.348-1.5a.742.742 0 01.484-1.404l4.35 1.5a.742.742 0 01.187 1.306z" fill="#002519"/></svg>