<svg width="50" height="50" fill="none" xmlns="http://www.w3.org/2000/svg"><g clip-path="url(#clip0)" fill="#002519"><path d="M8.758 22.675c.342 1.275-.541 3.258.367 4.817.908 1.558 3.108 1.833 3.983 2.716a14.173 14.173 0 011.409 2.5L10.1 45.6a1.667 1.667 0 002.5 1.892l2.767-1.959.975 3.242a1.667 1.667 0 003.175.067l4.316-12.425a2.984 2.984 0 002.334 0l4.283 12.458a1.667 1.667 0 003.175-.067l.975-3.241 2.767 1.933a1.667 1.667 0 002.5-1.892l-4.384-12.866c.385-.877.854-1.714 1.4-2.5.909-.934 3.117-1.184 3.992-2.742s.042-3.583.367-4.817c.325-1.233 2.091-2.525 2.091-4.35 0-1.825-1.783-3.183-2.091-4.35-.309-1.166.541-3.258-.367-4.816-.908-1.559-3.108-1.834-3.983-2.717s-1.15-3.117-2.725-4c-1.575-.883-3.584 0-4.817-.358C28.117 1.733 26.833 0 25 0c-1.833 0-3.175 1.775-4.35 2.092-1.3.341-3.25-.55-4.817.358-1.566.908-1.825 3.1-2.716 3.992-.892.891-3.117 1.15-3.95 2.725-.834 1.575 0 3.583-.367 4.816-.367 1.234-2.133 2.509-2.133 4.35 0 1.842 1.775 3.159 2.091 4.342zm9.217 25.658L17 45.075a1.667 1.667 0 00-2.567-.833l-2.766 1.933c4.466-13.008 4.083-12.008 4.166-12.008 1.534.891 3.584 0 4.817.358.601.258 1.162.6 1.667 1.017l-4.342 12.791zm17.592-4.166a1.667 1.667 0 00-2.567.916l-.975 3.25-4.383-12.758a6.34 6.34 0 011.666-1.008c1.309-.35 3.25.541 4.817-.367.083-.05-.292-1.017 4.167 11.967l-2.725-2zm-26.3-27.75c1.191-1.667 1.358-2.217 1.166-4.375-.191-2.159-.075-2.309 1.867-3.2 1.942-.892 2.325-1.284 3.208-3.217.884-1.933 1.159-2.05 3.209-1.858 2.05.191 2.691 0 4.375-1.167 1.683-1.167 2.058-1.242 3.816 0 1.759 1.242 2.259 1.35 4.375 1.167 2.117-.184 2.317-.075 3.209 1.858.891 1.933 1.291 2.325 3.208 3.217 1.917.891 2.058 1.116 1.867 3.2-.192 2.083 0 2.7 1.166 4.375 1.167 1.675 1.242 2.058 0 3.816-1.241 1.759-1.358 2.217-1.166 4.375.191 2.159.075 2.309-1.867 3.209-1.942.9-2.317 1.275-3.208 3.208-.892 1.933-1.117 2.05-3.209 1.867-2.091-.184-2.691 0-4.375 1.158-1.683 1.158-2.058 1.242-3.816 0a4.775 4.775 0 00-3.167-1.233c-1.2 0-2.558.341-3.258-.059-.959-.558-1.217-2.575-2.375-3.725-1.159-1.15-3.184-1.433-3.725-2.366-.542-.934.225-2.834-.2-4.409-.425-1.575-2.034-2.816-2.034-3.925.127-.713.45-1.377.934-1.916z"/><path d="M25 30.833c6.904 0 12.5-5.596 12.5-12.5 0-6.903-5.596-12.5-12.5-12.5s-12.5 5.597-12.5 12.5c0 6.904 5.596 12.5 12.5 12.5zM25 7.5c5.983 0 10.833 4.85 10.833 10.833 0 5.983-4.85 10.834-10.833 10.834-5.983 0-10.833-4.85-10.833-10.834A10.833 10.833 0 0125 7.5z"/><path d="M19.208 21.025a.833.833 0 00.792-.833 5.292 5.292 0 011.6-3.934c1.258-1.25 2.742-1.583 4.567-1.891A9.65 9.65 0 0029.708 13c1.084 4.167-.891 9.333-5 10.7a9.818 9.818 0 01-2.983.492 16.724 16.724 0 015-5.692.833.833 0 00-.975-1.35 17.325 17.325 0 00-6.092 7.5.833.833 0 00.7 1.108c4.359.467 8.275-1.3 10.217-5.5 1.3-2.804 1.426-6.01.35-8.908a.833.833 0 00-1.258-.367 8.733 8.733 0 01-3.792 1.709c-2.042.341-3.858.758-5.467 2.35a6.967 6.967 0 00-2.075 5.183.833.833 0 00.875.8z"/></g><defs><clipPath id="clip0"><path fill="#fff" d="M0 0h50v50H0z"/></clipPath></defs></svg>