<svg width="277" height="304" fill="none" xmlns="http://www.w3.org/2000/svg"><path d="M270.061 232.915c-6.842 10.838-14.498 20.575-22.944 29.212-8.469 8.661-18.016 16.054-28.662 22.25-10.647 6.173-22.442 10.886-35.361 14.116-12.92 3.23-27.179 4.857-42.754 4.857-21.102 0-40.242-3.613-57.445-10.838-17.202-7.225-31.892-17.25-44.045-30.074-12.154-12.824-21.533-28.184-28.089-46.056C4.206 198.51.928 178.844.928 157.359c0-23.183 3.613-44.428 10.838-63.712 7.226-19.284 17.346-35.816 30.361-49.597 13.015-13.78 28.615-24.475 46.774-32.083C107.06 4.359 126.965.555 148.618.555c20.336 0 38.447 3.469 54.309 10.407 15.863 6.938 29.309 16.389 40.338 28.375 11.03 11.963 19.379 25.983 25.097 42.037 5.695 16.077 8.566 33.207 8.566 51.462H90.743a26.185 26.185 0 00-.287 3.709v3.995c1.148 37.06 9.977 65.674 26.509 85.819 16.532 20.145 39.428 30.218 68.713 30.218 8.565 0 16.771-.766 24.666-2.273 7.896-1.508 15.264-3.565 22.107-6.125s13.063-5.455 18.662-8.685c5.598-3.23 10.503-6.651 14.689-10.264l4.259 3.685zm-126.013-219.8c-8.374 0-15.767 2.608-22.226 7.848-6.46 5.24-11.891 12.656-16.246 22.25-4.378 9.594-7.8 21.293-10.263 35.074-2.465 13.781-3.9 24.428-4.283 41.558l99.504-1.196c0-18.614-.957-34.596-2.847-47.898-1.89-13.303-4.761-24.236-8.541-32.778-3.804-8.565-8.613-14.833-14.403-18.829-5.814-4.043-12.704-6.029-20.695-6.029z" fill="#D6C5BF" fill-opacity=".2"/></svg>