<svg width="270" height="303" fill="none" xmlns="http://www.w3.org/2000/svg"><path d="M168.625 259.021c-11.795 12.92-25.576 23.375-41.342 31.366-15.791 7.991-32.61 11.987-50.458 11.987-11.03 0-21.198-1.436-30.505-4.283-9.306-2.847-17.345-6.986-24.092-12.393-6.747-5.407-12.035-12.011-15.815-19.81C2.61 258.088.72 249.164.72 239.092c0-15.958 4.522-30.122 13.542-42.467 9.02-12.346 21.102-22.992 36.198-31.94 15.121-8.924 32.634-16.054 52.612-21.389 19.953-5.311 40.959-8.924 63.018-10.838v-35.96c0-8.924-1.292-17.106-3.852-24.523-2.56-7.416-6.603-13.733-12.106-18.948-5.503-5.216-12.537-9.26-21.102-12.106-8.541-2.847-18.805-4.283-30.791-4.283-13.303 0-25.887 1.627-37.778 4.857-11.89 3.23-24.093 8.374-36.63 15.384l-3.995-5.407c15.408-15.384 34.213-27.801 56.44-37.204C98.525 4.866 123.31.152 150.68.152c20.528 0 37.443 2.417 50.745 7.274 13.303 4.856 23.806 11.675 31.51 20.527 7.704 8.829 13.063 19.38 16.101 31.653 3.039 12.25 4.57 25.696 4.57 40.338v167.523l15.575 30.193-101.37.814.813-39.453zm-43.615 1.986c16.149 0 29.834-4.378 41.055-13.111V143.272c-12.537 2.081-23.853 5.263-33.926 9.546-10.072 4.283-18.637 9.546-25.647 15.815-7.034 6.268-12.441 13.493-16.245 21.676-3.804 8.182-5.695 17.106-5.695 26.796 0 13.111 3.183 23.709 9.547 31.796 6.34 8.063 16.651 12.106 30.911 12.106z" fill="#D6C5BF" fill-opacity=".2"/></svg>