<svg width="244" height="298" fill="none" xmlns="http://www.w3.org/2000/svg"><path d="M122.906 4.713v51.295c3.996-7.417 9.498-14.498 16.532-21.245 7.034-6.747 14.929-12.68 23.662-17.824a128.986 128.986 0 0127.37-12.107C199.969 1.89 209.204.406 218.128.406c4.378 0 8.589.287 12.68.862 4.091.574 8.206 1.722 12.393 3.42l-15.097 91.227h-4.569a830.58 830.58 0 00-11.556-14.834c-4.091-5.143-8.661-9.833-13.685-14.115a66.397 66.397 0 00-16.819-10.408c-6.173-2.655-13.063-3.995-20.672-3.995-8.565 0-16.053 1.962-22.537 5.838-6.46 3.9-11.604 8.23-15.384 12.967v185.898l36.199 35.911v4.283H.291v-4.283l35.073-35.624V58.257L3.424 31.461v-4.57L119.748 1.507l3.158 3.206z" fill="#D6C5BF" fill-opacity=".2"/></svg>