<svg width="302" height="439" fill="none" xmlns="http://www.w3.org/2000/svg"><path d="M22.87 367.335c3.039-.574 7.226-1.052 12.537-1.435a604.412 604.412 0 0017.824-1.579c6.555-.67 13.398-1.531 20.528-2.56a146.057 146.057 0 0021.102-4.713c6.938-2.106 13.398-4.809 19.379-8.135 5.981-3.325 11.077-7.56 15.24-12.68l13.685-31.079L31.125 41.165.62 5.541V.97h157.666v4.57l-30.217 35.911 61.583 161.662 65.004-161.662L224.152 5.54V.97h77.254v4.57l-34.788 36.2-108.619 258.868c-10.838 25.648-21.341 46.989-31.509 64-10.168 17.011-19.571 30.744-28.232 41.199-8.66 10.455-16.34 18.111-23.088 22.944-6.746 4.857-12.202 7.943-16.388 9.259l-38.209-65.004 2.297-5.671z" fill="#D6C5BF" fill-opacity=".2"/></svg>