<svg width="353" height="411" fill="none" xmlns="http://www.w3.org/2000/svg"><path d="M0 405.65l38.782-46.462V51.56L0 5.097V.24h189.869c27.37 0 51.272 2.943 71.704 8.829 20.432 5.885 37.442 14.068 51.032 24.523 13.589 10.455 23.709 22.896 30.361 37.347 6.651 14.45 9.976 30.313 9.976 47.611 0 19.187-3.804 36.533-11.388 52.037-7.608 15.503-18.733 28.686-33.352 39.619-14.642 10.934-32.777 19.38-54.453 25.385-21.652 5.981-46.558 8.972-74.694 8.972h-21.676v-15.121l17.393-.287c10.073-.574 19.858-2.991 29.356-7.273 9.499-4.283 17.968-10.79 25.385-19.523 7.417-8.733 13.398-20.001 17.968-33.782 4.569-13.781 6.842-30.552 6.842-50.315 0-33.83-7.656-59.43-22.992-76.823-15.336-17.393-39.309-26.078-71.871-26.078h-27.178v343.827l44.476 46.462v4.857H0v-4.857z" fill="#D6C5BF" fill-opacity=".2"/></svg>