<svg width="45" height="45" fill="none" xmlns="http://www.w3.org/2000/svg"><g clip-path="url(#clip0)" fill="#002519"><path d="M8.007 28.984C3.592 28.984 0 32.576 0 36.991 0 41.407 3.592 45 8.007 45c4.416 0 8.009-3.593 8.009-8.01 0-4.414-3.593-8.006-8.01-8.006zm0 14.258a6.257 6.257 0 01-6.25-6.251 6.256 6.256 0 016.25-6.249 6.257 6.257 0 016.251 6.249 6.258 6.258 0 01-6.251 6.251z"/><path d="M11.25 33.75a.88.88 0 00-1.244 0l-1.998 2-1.998-2a.88.88 0 00-1.243 1.244l1.998 1.998-1.998 1.998a.879.879 0 001.243 1.243l1.998-1.998 1.998 1.998a.876.876 0 001.243 0 .879.879 0 000-1.243l-1.998-1.998 1.998-1.998a.879.879 0 000-1.243zm21.937-3.109c1.898-2.2 2.831-4.917 2.63-7.68-.21-2.892-1.644-5.578-4.037-7.564a.879.879 0 00-1.152.026 10.4 10.4 0 00-.286.268c-.616-2.039-1.866-3.898-3.627-5.359a.88.88 0 00-1.152.026 12.38 12.38 0 00-.286.268c-.616-2.039-1.866-3.898-3.627-5.359a.879.879 0 00-1.152.026c-.097.088-.192.177-.286.268-.616-2.04-1.867-3.899-3.63-5.359a.879.879 0 00-1.151.026c-1.305 1.184-2.278 2.572-2.9 4.06-2.388-2.158-5.633-3.238-9.116-2.99a.879.879 0 00-.814.814c-.248 3.485.832 6.73 2.991 9.118-1.489.621-2.878 1.595-4.061 2.9a.879.879 0 00-.026 1.152c1.462 1.763 3.321 3.013 5.358 3.628-.09.093-.18.189-.267.285a.879.879 0 00-.026 1.152c1.462 1.763 3.321 3.013 5.358 3.628-.09.093-.18.188-.267.285a.879.879 0 00-.026 1.152c1.462 1.762 3.321 3.013 5.358 3.628a12.3 12.3 0 00-.267.285.879.879 0 00-.026 1.152c1.984 2.393 4.669 3.827 7.559 4.038.247.018.494.027.74.027 2.507 0 4.941-.928 6.946-2.657l3.28 3.281a.876.876 0 001.244 0 .88.88 0 000-1.243l-3.282-3.282zm-7.007-18.43c1.485 1.434 2.442 3.223 2.74 5.132-1.51 2.122-2.187 4.613-1.948 7.083l-2.63-2.63c-1.42-3.235-.7-6.905 1.838-9.585zm-5.064-5.065c1.484 1.434 2.44 3.223 2.739 5.132-1.51 2.122-2.187 4.613-1.948 7.083l-2.63-2.631c-1.421-3.232-.7-6.903 1.838-9.584zm-5.068-5.065c1.486 1.433 2.444 3.222 2.742 5.132-1.51 2.122-2.188 4.613-1.949 7.082l-2.63-2.63c-1.42-3.233-.7-6.904 1.837-9.584zm-11.724.94h.065c2.968 0 5.666 1.123 7.555 3.154a10.107 10.107 0 00.092 4.559 10.113 10.113 0 00-4.557-.092C5.432 8.739 4.307 6.015 4.324 3.02zm-.94 11.726c2.678-2.537 6.35-3.258 9.584-1.839l2.63 2.63c-2.47-.239-4.961.44-7.083 1.949-1.907-.296-3.696-1.253-5.13-2.74zm5.065 5.065c2.678-2.537 6.35-3.258 9.584-1.839l2.631 2.631c-2.47-.24-4.961.44-7.084 1.948-1.906-.296-3.696-1.253-5.131-2.74zm5.065 5.065c2.68-2.537 6.35-3.258 9.584-1.839l2.631 2.631c-2.47-.24-4.961.439-7.084 1.948-1.907-.296-3.696-1.253-5.13-2.74zm10.873 7.885c-2.165-.158-4.201-1.152-5.808-2.82 2.68-2.537 6.35-3.258 9.584-1.839l2.535 2.534c-1.829 1.536-4.057 2.289-6.311 2.125zm7.553-3.368l-2.534-2.534c-1.419-3.234-.698-6.905 1.84-9.584 1.667 1.608 2.661 3.646 2.818 5.812.164 2.253-.589 4.48-2.124 6.306zm12.802 12.802l-2.698-2.695a.879.879 0 10-1.242 1.243L43.5 43.44a.876.876 0 001.243 0 .879.879 0 000-1.244zm-6.733-5.486a.88.88 0 000 1.244l.002.002a.873.873 0 001.242-.001.88.88 0 00-1.244-1.244z"/></g><defs><clipPath id="clip0"><path fill="#fff" d="M0 0h45v45H0z"/></clipPath></defs></svg>