<svg width="50" height="50" fill="none" xmlns="http://www.w3.org/2000/svg"><g clip-path="url(#clip0)" fill="#002519"><path d="M18.333 48.65C25.69 53.333 36.299 45 36.666 31.89a1.665 1.665 0 002.008-.608l.925-1.392a1.667 1.667 0 00-.475-2.316L49.7 11.665c.185-.27.287-.589.292-.917V1.666a1.667 1.667 0 00-3.05-.925c-1.108 1.709 4.542-6.816-13.5 20.292-3.767-4.667-9.658-4.592-14.258-.467.266-7.7 3.241-8.058 3.333-8.066a.833.833 0 000-1.667 3.783 3.783 0 00-2.725 1.583c-1.158-4.5-6.133-7.6-9.908-6.525-.557.158-.98.61-1.1 1.175-1.017 4.7 4.166 10.184 9.166 9.55a22.81 22.81 0 00-.45 3.983c-5.125-4.624-11.241-3.891-14.733 1C.308 25.084-.584 30.274.399 35.5c1.992 10.609 10.909 17.609 17.934 13.15zM10.383 7.5c3.783-1.017 8.641 3.541 7.875 7.383-3.784.992-8.642-3.558-7.875-7.383zm18.925 25.59l2.258-4.517 2.6 1.725-3.333 3.867c-.05-.116.483.267-1.525-1.075zm7.958-2.733c-.083 0 .833.541-6.958-4.625l.925-1.392 6.958 4.625-.925 1.392zM48.333 1.666v9.083L37.724 26.666l-4.166-2.775.916-1.391 1.359.908a.833.833 0 00.925-1.384l-1.392-.925.925-1.4 1.392.925a.833.833 0 001.158-.233.833.833 0 00-.233-1.15l-1.359-.908.925-1.4 1.392.925a.834.834 0 001.158-.233.833.833 0 00-.233-1.15l-1.392-.926.9-1.383 1.4.934a.833.833 0 00.917-1.392l-1.367-.959.925-1.391 1.4.925a.833.833 0 00.892-1.392L42.799 10l5.534-8.334zm-44.167 20.9c3-4.233 8.083-4.591 12.375-.616a2.717 2.717 0 003.592 0c4.075-3.776 9.166-3.809 12.325.566l-.292.45a1.667 1.667 0 00-2.317.458l-.925 1.392a1.667 1.667 0 00.459 2.317l.783.517-2.35 4.708a1.667 1.667 0 00.567 2.133c.125.084.533-.617-4.075 6.317a.833.833 0 00.233 1.158.833.833 0 001.15-.233l4.167-6.267.083.059c.701.469 1.642.34 2.192-.3l2.85-3.334c-.342 11.667-9.667 19.817-16.159 15.059a.833.833 0 00-.983 0 6.984 6.984 0 01-3.1 1.291c-5.5.834-11.2-5-12.708-13.058-.9-4.775-.109-9.5 2.133-12.617z"/><path d="M5 35a.833.833 0 00.833-1.033c-1.491-5.984 1.009-8.217 1.134-8.334a.835.835 0 10-1.059-1.291c-.141.116-3.466 2.916-1.666 10A.833.833 0 005 35zm3.075-11.667a.833.833 0 100-1.666.833.833 0 000 1.666z"/></g><defs><clipPath id="clip0"><path fill="#fff" d="M0 0h50v50H0z"/></clipPath></defs></svg>