<svg width="50" height="50" fill="none" xmlns="http://www.w3.org/2000/svg"><path d="M25 17.5c1.875 0 3.333-1.1 3.333-2.5S26.875 12.5 25 12.5c-1.875 0-3.333 1.1-3.333 2.5S23.15 17.5 25 17.5zm0-3.333c1.017 0 1.667.491 1.667.833 0 .342-.65.833-1.667.833s-1.667-.491-1.667-.833c0-.342.667-.833 1.667-.833z" fill="#002519"/><path d="M25 0C11.193 0 0 11.193 0 25s11.193 25 25 25 25-11.193 25-25A25 25 0 0025 0zM1.667 25A23.267 23.267 0 017.933 9.108l6.392 6.4c-2.042 4.917-1.708 4.084-1.767 4.317-.058.233-.058-1.583-.058 21.008a2.5 2.5 0 002.5 2.5h20a2.5 2.5 0 002.5-2.5V38.7l3.333 3.333A23.333 23.333 0 011.667 25zm30-15.833H18.333v-.834c0-.92.747-1.666 1.667-1.666h10c.92 0 1.667.746 1.667 1.666v.834zm-13.592 1.666h13.892l3.466 8.334H20.367L16.3 15.1l1.775-4.267zm-3.908 25.834h16.666a.833.833 0 100-1.667H14.167v-8.333h6.666a.833.833 0 100-1.667h-6.666v-4.167h5.491l16.175 16.2v3.8c0 .46-.373.834-.833.834H15a.833.833 0 01-.833-.834v-4.166zm7.85-15.834h13.816V25h-5a.833.833 0 000 1.667h5v7.991L22.017 20.833zm-4.025-1.666H14.6l1-2.4 2.392 2.4zm24.075 21.725l-4.567-4.55V19.825c0-.242.458 1.042-4.167-10V8.333A3.333 3.333 0 0030 5H20a3.333 3.333 0 00-3.333 3.333v1.5L15 13.825 9.083 7.917c9.19-8.587 23.532-8.344 32.427.548s9.14 23.234.557 32.427z" fill="#002519"/></svg>