<?xml version="1.0" encoding="utf-8"?><svg viewBox="0 0 353 439" xmlns="http://www.w3.org/2000/svg" xmlns:xlink="http://www.w3.org/1999/xlink"><style>:root>svg{display:none}:root>svg:target{display:block}</style><svg fill="none" viewBox="0 0 89 195" id="1" xmlns="http://www.w3.org/2000/svg"><path d="M86.312 2.92h2v-2h-2v2zm0 190.08v2h2v-2h-2zm-30.24 0h-2v2h2v-2zm.288-155.808l1.997.105.268-5.09-3.658 3.55 1.393 1.435zM33.896 53.608l-.958-1.756-.008.005-.009.005.975 1.746zM8.552 63.4l-1.955.42.423 1.97 1.966-.438-.434-1.952zm-5.76-26.784l-.23-1.987-2.189.253.464 2.154 1.955-.42zm19.296-6.336l-.824-1.822-.009.004-.008.003.841 1.815zM44.84 17.32l1.15 1.636-1.15-1.636zm15.552-14.4v-2h-1.034l-.598.844 1.632 1.156zm23.92 0V193h4V2.92h-4zm2 188.08h-30.24v4h30.24v-4zm-28.24 2V52.456h-4V193h4zm0-140.544c0-6.516.096-11.563.285-15.159l-3.994-.21c-.195 3.7-.291 8.828-.291 15.369h4zm-3.105-16.7c-6.39 6.204-13.73 11.57-22.029 16.096l1.916 3.512c8.598-4.69 16.234-10.268 22.899-16.737l-2.786-2.87zM32.921 51.863c-8.098 4.52-16.365 7.71-24.803 9.586l.868 3.904c8.842-1.965 17.47-5.302 25.885-9.998l-1.95-3.492zM10.507 62.979l-5.76-26.783-3.91.84 5.76 26.785 3.91-.841zM3.021 38.603c5.304-.612 11.962-2.826 19.908-6.508l-1.682-3.63C13.45 32.08 7.243 34.09 2.563 34.63l.458 3.974zm19.891-6.5A141.4 141.4 0 0045.99 18.955l-2.3-3.272c-7 4.918-14.474 9.176-22.426 12.774l1.648 3.644zM45.99 18.955c7.201-5.06 12.587-10.013 16.034-14.88L58.76 1.764c-3.08 4.35-8.063 8.996-15.07 13.92l2.3 3.272zM60.392 4.92h25.92v-4h-25.92v4z" fill="#FCC8AA"/></svg><svg fill="none" viewBox="0 0 144 197" id="2" xmlns="http://www.w3.org/2000/svg"><path d="M9.16 172.248l-1.147-1.638-.853.597v1.041h2zm58.176-44.352l1.317 1.505.006-.005.006-.005-1.329-1.495zM97 94.488l-1.712-1.034-.006.01L97 94.488zm-.576-56.16l-1.414 1.414.01.01.011.011 1.393-1.435zm-54.72 2.304l-1.485-1.34-.009.01-.009.01 1.503 1.32zM29.896 73.464l-.84 1.815 2.637 1.22.198-2.898-1.995-.137zM3.112 61.08l-1.989-.21-.15 1.425 1.3.6.839-1.815zm21.024-43.2l1.315 1.507-1.315-1.507zm83.232-7.776l-.948 1.76.013.008.013.007.922-1.775zm22.752 21.312l-1.734.996 1.734-.996zm-12.672 82.656l-1.542-1.273-.009.01 1.551 1.263zM50.056 169.08l-1.078-1.684-.922.59v1.094h2zm0 .576h-2v2.166l2.16-.172-.16-1.994zm91.296-1.152h2v-2h-2v2zm0 26.496v2h2v-2h-2zM9.16 195h-2v2h2v-2zm1.147-21.114c24.986-17.49 44.444-32.321 58.346-44.485l-2.634-3.01c-13.746 12.028-33.072 26.765-58.006 44.219l2.294 3.276zm58.358-44.495c13.898-12.354 23.953-23.647 30.053-33.879l-3.436-2.048c-5.804 9.736-15.525 20.715-29.275 32.937l2.658 2.99zm30.047-33.87c6.312-10.453 9.504-21.271 9.504-32.425h-4c0 10.35-2.952 20.46-8.928 30.358l3.424 2.068zm9.504-32.425c0-10.646-3.435-19.444-10.399-26.203l-2.786 2.87c6.092 5.913 9.185 13.627 9.185 23.333h4zM97.838 36.914c-6.797-6.798-16.092-10.09-27.622-10.09v4c10.742 0 18.92 3.044 24.794 8.918l2.828-2.828zm-27.622-10.09c-12.393 0-22.465 4.122-29.997 12.468l2.97 2.68c6.676-7.398 15.612-11.148 27.027-11.148v-4zM40.201 39.312c-7.286 8.299-11.32 19.71-12.3 34.015l3.99.274c.94-13.727 4.778-24.203 11.316-31.65L40.2 39.313zM30.735 71.65L3.951 59.265l-1.678 3.63L29.057 75.28l1.678-3.63zM5.101 61.289c1.875-17.814 8.689-31.722 20.35-41.902l-2.63-3.014C10.29 27.313 3.088 42.205 1.123 60.871l3.978.418zm20.35-41.902C37.104 9.214 52.535 4.04 71.944 4.04v-4C51.801.04 35.36 5.426 22.821 16.373l2.63 3.014zM71.944 4.04c13.368 0 24.837 2.635 34.476 7.825l1.896-3.522C97.987 2.781 85.84.04 71.944.04v4zm34.502 7.839c9.673 5.022 16.962 11.868 21.94 20.533l3.468-1.992c-5.39-9.383-13.269-16.745-23.564-22.091l-1.844 3.55zm21.94 20.533c4.994 8.695 7.51 18.522 7.51 29.532h4c0-11.646-2.668-22.17-8.042-31.524l-3.468 1.992zm7.51 29.532c0 17.697-6.6 34.636-19.99 50.855l3.084 2.546c13.874-16.805 20.906-34.618 20.906-53.401h-4zm-19.999 50.865c-13.241 16.268-35.497 34.468-66.92 54.587l2.157 3.368c31.554-20.201 54.226-38.673 67.865-55.429l-3.102-2.526zM48.056 169.08v.576h4v-.576h-4zm2.16 2.57c9.538-.763 19.948-1.146 31.232-1.146v-4c-11.372 0-21.89.385-31.551 1.158l.319 3.988zm31.232-1.146h59.904v-4H81.448v4zm57.904-2V195h4v-26.496h-4zm2 24.496H9.16v4h132.192v-4zM11.16 195v-22.752h-4V195h4z" fill="#FCC8AA"/></svg><svg fill="none" viewBox="0 0 143 200" id="3" xmlns="http://www.w3.org/2000/svg"><path d="M107.792 8.952l-.894 1.789.022.01.022.011.85-1.81zm21.312 18.144l-1.696 1.06 1.696-1.06zm1.728 49.824l-1.779-.914-.005.01-.005.01 1.789.894zm-13.536 16.128l-1.135-1.646-.014.009-.013.01 1.162 1.627zm-16.704 5.76v-2h-2v2h2zm0 .576h-2v2h2v-2zm19.872 5.472l-1.045 1.705.012.008.012.007 1.021-1.72zm11.52 66.816l1.64 1.144-1.64-1.144zm-24.48 19.296l-.8-1.833-.012.005.812 1.828zM3.248 151.8l-.865-1.803-1.632.783.617 1.702 1.88-.682zm28.224-13.536l1.936-.501-.608-2.354-2.193 1.052.865 1.803zm13.824 25.056l-1.32 1.502.013.012.013.011 1.294-1.525zm54.432-.288l1.298 1.522.013-.011.012-.011-1.323-1.5zm.288-44.64l-1.167 1.624.028.021.03.019 1.109-1.664zm-38.304-6.624h-2v2h2v-2zm0-24.48v-2h-2v2h2zm35.136-51.264l-1.36 1.466.012.011.013.012 1.335-1.489zm-47.52 0l1.255 1.557.006-.005-1.261-1.552zM37.808 56.76l-.756 1.852 2.261.922.46-2.398-1.965-.376zM9.584 45.24l-1.92-.56-.505 1.73 1.67.682.755-1.852zm23.328-31.968l-1.077-1.685-.007.004-.006.004 1.09 1.677zM74.384 4.04c12.826 0 23.64 2.264 32.514 6.7l1.788-3.577C99.129 2.384 87.67.04 74.384.04v4zm32.558 6.722c9.113 4.278 15.899 10.087 20.466 17.394l3.392-2.12c-5.033-8.053-12.454-14.34-22.158-18.894l-1.7 3.62zm20.466 17.394c4.593 7.35 6.896 15.523 6.896 24.572h4c0-9.768-2.497-18.681-7.504-26.692l-3.392 2.12zm6.896 24.572c0 8.748-1.766 16.492-5.251 23.278l3.558 1.828c3.811-7.422 5.693-15.806 5.693-25.106h-4zm-5.261 23.298c-3.327 6.653-7.63 11.753-12.882 15.376l2.27 3.292c5.884-4.057 10.605-9.71 14.19-16.88l-3.578-1.788zM116.134 91.42c-5.089 3.634-10.258 5.387-15.542 5.387v4c6.236 0 12.203-2.087 17.866-6.133l-2.324-3.254zm-17.542 7.387v.576h4v-.576h-4zm2 2.576c6.945 0 13.204 1.731 18.827 5.177l2.09-3.41c-6.281-3.85-13.27-5.767-20.917-5.767v4zm18.851 5.192c5.812 3.451 10.463 8.36 13.951 14.786l3.516-1.908c-3.808-7.014-8.949-12.473-15.425-16.318l-2.042 3.44zm13.951 14.786c3.466 6.385 5.23 13.823 5.23 22.374h4c0-9.113-1.884-17.227-5.714-24.282l-3.516 1.908zm5.23 22.374c0 9.972-2.762 18.882-8.28 26.792l3.28 2.288c6.002-8.602 9-18.316 9-29.08h-4zm-8.28 26.792c-5.52 7.911-13.368 14.125-23.64 18.607l1.6 3.666c10.848-4.734 19.32-11.384 25.32-19.985l-3.28-2.288zm-23.652 18.612c-10.066 4.474-21.78 6.74-35.188 6.74v4c13.856 0 26.142-2.342 36.812-7.084l-1.624-3.656zm-35.188 6.74c-16.886 0-30.75-3.771-41.72-11.178-10.963-7.401-19.204-18.543-24.656-33.584l-3.76 1.364c5.684 15.679 14.387 27.577 26.177 35.536 11.781 7.953 26.477 11.862 43.959 11.862v-4zM4.113 153.603l28.224-13.536-1.73-3.606-28.224 13.536 1.73 3.606zm25.423-14.838c2.944 11.386 7.711 20.144 14.44 26.057l2.64-3.004c-5.943-5.223-10.392-13.169-13.208-24.055l-3.872 1.002zm14.466 26.08c6.826 5.792 16.477 8.539 28.654 8.539v-4c-11.632 0-20.22-2.629-26.066-7.589l-2.588 3.05zm28.654 8.539c11.832 0 21.372-2.862 28.37-8.83l-2.596-3.044c-6.058 5.168-14.566 7.874-25.774 7.874v4zm28.395-8.852c6.996-6.173 10.469-14.322 10.469-24.252h-4c0 8.886-3.055 15.905-9.115 21.252l2.646 3zm10.469-24.252c0-10.771-3.312-18.831-10.395-23.552l-2.218 3.328c5.589 3.727 8.613 10.259 8.613 20.224h4zm-10.337-23.512c-6.663-4.789-17.074-7-30.831-7v4c13.507 0 22.872 2.205 28.497 6.248l2.334-3.248zm-30.831-7h-8.64v4h8.64v-4zm-6.64 2v-24.48h-4v24.48h4zm-2-22.48h7.776v-4h-7.776v4zm7.776 0c12.128 0 21.595-2.486 28.055-7.8 6.534-5.374 9.657-13.362 9.657-23.576h-4c0 9.37-2.829 16.07-8.199 20.487-5.444 4.479-13.833 6.889-25.513 6.889v4zM107.2 57.912c0-9.996-2.913-17.904-9.017-23.377l-2.67 2.978c5.032 4.512 7.687 11.196 7.687 20.399h4zm-8.991-23.354c-5.862-5.443-14.097-8.022-24.401-8.022v4c9.664 0 16.79 2.413 21.68 6.954l2.72-2.932zm-24.401-8.022c-10.502 0-19.15 2.58-25.741 7.936l2.522 3.104c5.697-4.628 13.37-7.04 23.219-7.04v-4zm-25.736 7.931c-6.39 5.154-10.43 12.526-12.228 21.917l3.928.752c1.658-8.657 5.299-15.11 10.812-19.555l-2.512-3.114zm-9.508 20.441L10.34 43.388l-1.512 3.704 28.224 11.52 1.512-3.704zM11.504 45.8c3.905-13.388 11.4-23.637 22.498-30.851l-2.18-3.354C19.88 19.357 11.823 30.42 7.664 44.68l3.84 1.12zm22.485-30.843C45.335 7.704 58.773 4.04 74.384 4.04v-4c-16.26 0-30.47 3.824-42.55 11.547l2.155 3.37z" fill="#FCC8AA"/></svg><svg fill="none" viewBox="0 0 33 46" id="Frame" xmlns="http://www.w3.org/2000/svg"><path d="M16.5 0S33 21.18 33 29.846C33 38.756 25.6 46 16.5 46S0 38.756 0 29.846C0 21.18 16.5 0 16.5 0zm0 44.533c8.268 0 15.002-6.592 15.002-14.687 0-7.244-12.144-23.652-15.002-27.42-2.858 3.759-15.002 20.166-15.002 27.42 0 8.095 6.734 14.687 15.002 14.687z" fill="#002519"/><path d="M15.744 23.144h1.512v13.173h-1.512V23.144z" fill="#002519"/><path d="M23.227 28.99v1.48H9.772v-1.48h13.455z" fill="#002519"/></svg><svg fill="none" viewBox="0 0 67 15" id="Vector" xmlns="http://www.w3.org/2000/svg"><path d="M59.263 15L67 7.5 59.266 0l-.911.881 6.179 5.994H0v1.25h64.534l-6.182 5.996.911.879z" fill="#002519"/></svg><svg fill="none" viewBox="0 0 50 50" id="box_(1)_1" xmlns="http://www.w3.org/2000/svg"><path d="M49.938 8.869a.78.78 0 00-.073-.147c-.014-.02-.026-.042-.042-.061a.807.807 0 00-.127-.131c-.013-.011-.024-.024-.037-.033l-.008-.008a.852.852 0 00-.199-.103l-.014-.006L25.272.046a.835.835 0 00-.544 0L.562 8.38l-.014.007a.818.818 0 00-.199.102l-.008.008c-.013.01-.024.022-.037.033a.808.808 0 00-.127.13c-.015.02-.028.041-.042.062a.782.782 0 00-.073.147.826.826 0 00-.062.298v31.667c0 .355.226.672.562.788l24.166 8.333h.01a.8.8 0 00.524 0h.01l24.166-8.333a.834.834 0 00.562-.788V9.167a.825.825 0 00-.062-.298zM25 16.619L3.39 9.167l9.527-3.285 21.61 7.452L25 16.619zm0-14.903l21.61 7.451-9.527 3.285L15.473 5 25 1.716zM1.667 10.334l22.5 7.758v29.909l-22.5-7.761V10.334zm36.25 33.5v-6.889l2.673-.921a9.021 9.021 0 006.077-8.524.833.833 0 00-1.105-.787l-3.235 1.116a9.01 9.01 0 00-5.511 5.398 5.065 5.065 0 00-.994-.94c-1.31-.947-3-1.191-4.525-.656l-3.236 1.12a.833.833 0 00-.561.787 5.005 5.005 0 004.976 5c.56 0 1.115-.095 1.643-.28l2.131-.733v6.886l-10.417 3.59V18.095l22.5-7.761V40.24l-10.416 3.594zm.099-8.683a7.353 7.353 0 014.854-5.745l2.03-.701a7.355 7.355 0 01-4.853 5.745l-2.031.7zm-1.815.625l-2.624.905a3.328 3.328 0 01-4.361-2.567l2.624-.905a3.328 3.328 0 014.36 2.567z" fill="#002519"/><path d="M15.877 17.266l-4.35-1.5a2.41 2.41 0 00-1.57 4.555l4.349 1.5a2.41 2.41 0 001.57-4.555zm-.355 2.881a.73.73 0 01-.673.098l-4.348-1.5a.742.742 0 01.484-1.404l4.35 1.5a.742.742 0 01.187 1.306z" fill="#002519"/></svg><svg fill="none" viewBox="0 0 50 50" id="certified_1" xmlns="http://www.w3.org/2000/svg"><g clip-path="url(#gclip0)" fill="#002519"><path d="M8.758 22.675c.342 1.275-.541 3.258.367 4.817.908 1.558 3.108 1.833 3.983 2.716a14.173 14.173 0 011.409 2.5L10.1 45.6a1.667 1.667 0 002.5 1.892l2.767-1.959.975 3.242a1.667 1.667 0 003.175.067l4.316-12.425a2.984 2.984 0 002.334 0l4.283 12.458a1.667 1.667 0 003.175-.067l.975-3.241 2.767 1.933a1.667 1.667 0 002.5-1.892l-4.384-12.866c.385-.877.854-1.714 1.4-2.5.909-.934 3.117-1.184 3.992-2.742s.042-3.583.367-4.817c.325-1.233 2.091-2.525 2.091-4.35 0-1.825-1.783-3.183-2.091-4.35-.309-1.166.541-3.258-.367-4.816-.908-1.559-3.108-1.834-3.983-2.717s-1.15-3.117-2.725-4c-1.575-.883-3.584 0-4.817-.358C28.117 1.733 26.833 0 25 0c-1.833 0-3.175 1.775-4.35 2.092-1.3.341-3.25-.55-4.817.358-1.566.908-1.825 3.1-2.716 3.992-.892.891-3.117 1.15-3.95 2.725-.834 1.575 0 3.583-.367 4.816-.367 1.234-2.133 2.509-2.133 4.35 0 1.842 1.775 3.159 2.091 4.342zm9.217 25.658L17 45.075a1.667 1.667 0 00-2.567-.833l-2.766 1.933c4.466-13.008 4.083-12.008 4.166-12.008 1.534.891 3.584 0 4.817.358.601.258 1.162.6 1.667 1.017l-4.342 12.791zm17.592-4.166a1.667 1.667 0 00-2.567.916l-.975 3.25-4.383-12.758a6.34 6.34 0 011.666-1.008c1.309-.35 3.25.541 4.817-.367.083-.05-.292-1.017 4.167 11.967l-2.725-2zm-26.3-27.75c1.191-1.667 1.358-2.217 1.166-4.375-.191-2.159-.075-2.309 1.867-3.2 1.942-.892 2.325-1.284 3.208-3.217.884-1.933 1.159-2.05 3.209-1.858 2.05.191 2.691 0 4.375-1.167 1.683-1.167 2.058-1.242 3.816 0 1.759 1.242 2.259 1.35 4.375 1.167 2.117-.184 2.317-.075 3.209 1.858.891 1.933 1.291 2.325 3.208 3.217 1.917.891 2.058 1.116 1.867 3.2-.192 2.083 0 2.7 1.166 4.375 1.167 1.675 1.242 2.058 0 3.816-1.241 1.759-1.358 2.217-1.166 4.375.191 2.159.075 2.309-1.867 3.209-1.942.9-2.317 1.275-3.208 3.208-.892 1.933-1.117 2.05-3.209 1.867-2.091-.184-2.691 0-4.375 1.158-1.683 1.158-2.058 1.242-3.816 0a4.775 4.775 0 00-3.167-1.233c-1.2 0-2.558.341-3.258-.059-.959-.558-1.217-2.575-2.375-3.725-1.159-1.15-3.184-1.433-3.725-2.366-.542-.934.225-2.834-.2-4.409-.425-1.575-2.034-2.816-2.034-3.925.127-.713.45-1.377.934-1.916z"/><path d="M25 30.833c6.904 0 12.5-5.596 12.5-12.5 0-6.903-5.596-12.5-12.5-12.5s-12.5 5.597-12.5 12.5c0 6.904 5.596 12.5 12.5 12.5zM25 7.5c5.983 0 10.833 4.85 10.833 10.833 0 5.983-4.85 10.834-10.833 10.834-5.983 0-10.833-4.85-10.833-10.834A10.833 10.833 0 0125 7.5z"/><path d="M19.208 21.025a.833.833 0 00.792-.833 5.292 5.292 0 011.6-3.934c1.258-1.25 2.742-1.583 4.567-1.891A9.65 9.65 0 0029.708 13c1.084 4.167-.891 9.333-5 10.7a9.818 9.818 0 01-2.983.492 16.724 16.724 0 015-5.692.833.833 0 00-.975-1.35 17.325 17.325 0 00-6.092 7.5.833.833 0 00.7 1.108c4.359.467 8.275-1.3 10.217-5.5 1.3-2.804 1.426-6.01.35-8.908a.833.833 0 00-1.258-.367 8.733 8.733 0 01-3.792 1.709c-2.042.341-3.858.758-5.467 2.35a6.967 6.967 0 00-2.075 5.183.833.833 0 00.875.8z"/></g><defs><clipPath id="gclip0"><path fill="#fff" d="M0 0h50v50H0z"/></clipPath></defs></svg><svg fill="none" viewBox="0 0 20 20" id="check" xmlns="http://www.w3.org/2000/svg"><g clip-path="url(#hclip0)"><path d="M8.06 19.51c.647.655 2.088.438 2.243-.59.965-6.391 5.793-11.782 9.447-16.862C20.763.65 18.434-.687 17.434.704c-3.34 4.642-7.548 9.526-9.194 15.158-1.882-1.923-3.77-3.827-5.88-5.517-1.337-1.07-3.249.816-1.898 1.897 2.75 2.202 5.125 4.77 7.599 7.269z" fill="#47AD4B"/></g><defs><clipPath id="hclip0"><path fill="#fff" d="M0 0h20v20H0z"/></clipPath></defs></svg><svg fill="none" viewBox="0 0 22 22" id="close" xmlns="http://www.w3.org/2000/svg"><path fill="#002519" d="M0 .823L.823.001l20.562 20.562-.823.822z"/><path fill="#002519" d="M0 .823L.823.001l20.562 20.562-.823.822z"/><path fill="#002519" d="M.822 21.384L0 20.562 20.562 0l.822.822z"/><path fill="#002519" d="M.822 21.384L0 20.562 20.562 0l.822.822z"/></svg><svg fill="none" viewBox="0 0 270 303" id="font_a" xmlns="http://www.w3.org/2000/svg"><path d="M168.625 259.021c-11.795 12.92-25.576 23.375-41.342 31.366-15.791 7.991-32.61 11.987-50.458 11.987-11.03 0-21.198-1.436-30.505-4.283-9.306-2.847-17.345-6.986-24.092-12.393-6.747-5.407-12.035-12.011-15.815-19.81C2.61 258.088.72 249.164.72 239.092c0-15.958 4.522-30.122 13.542-42.467 9.02-12.346 21.102-22.992 36.198-31.94 15.121-8.924 32.634-16.054 52.612-21.389 19.953-5.311 40.959-8.924 63.018-10.838v-35.96c0-8.924-1.292-17.106-3.852-24.523-2.56-7.416-6.603-13.733-12.106-18.948-5.503-5.216-12.537-9.26-21.102-12.106-8.541-2.847-18.805-4.283-30.791-4.283-13.303 0-25.887 1.627-37.778 4.857-11.89 3.23-24.093 8.374-36.63 15.384l-3.995-5.407c15.408-15.384 34.213-27.801 56.44-37.204C98.525 4.866 123.31.152 150.68.152c20.528 0 37.443 2.417 50.745 7.274 13.303 4.856 23.806 11.675 31.51 20.527 7.704 8.829 13.063 19.38 16.101 31.653 3.039 12.25 4.57 25.696 4.57 40.338v167.523l15.575 30.193-101.37.814.813-39.453zm-43.615 1.986c16.149 0 29.834-4.378 41.055-13.111V143.272c-12.537 2.081-23.853 5.263-33.926 9.546-10.072 4.283-18.637 9.546-25.647 15.815-7.034 6.268-12.441 13.493-16.245 21.676-3.804 8.182-5.695 17.106-5.695 26.796 0 13.111 3.183 23.709 9.547 31.796 6.34 8.063 16.651 12.106 30.911 12.106z" fill="#D6C5BF" fill-opacity=".2"/></svg><svg fill="none" viewBox="0 0 94 94" id="font_dot" xmlns="http://www.w3.org/2000/svg"><path d="M47.182 93.536c25.792 0 46.701-20.909 46.701-46.702C93.883 21.042 72.974.133 47.182.133 21.389.133.48 21.042.48 46.834c0 25.793 20.909 46.702 46.702 46.702z" fill="#D6C5BF" fill-opacity=".2"/></svg><svg fill="none" viewBox="0 0 277 304" id="font_e" xmlns="http://www.w3.org/2000/svg"><path d="M270.061 232.915c-6.842 10.838-14.498 20.575-22.944 29.212-8.469 8.661-18.016 16.054-28.662 22.25-10.647 6.173-22.442 10.886-35.361 14.116-12.92 3.23-27.179 4.857-42.754 4.857-21.102 0-40.242-3.613-57.445-10.838-17.202-7.225-31.892-17.25-44.045-30.074-12.154-12.824-21.533-28.184-28.089-46.056C4.206 198.51.928 178.844.928 157.359c0-23.183 3.613-44.428 10.838-63.712 7.226-19.284 17.346-35.816 30.361-49.597 13.015-13.78 28.615-24.475 46.774-32.083C107.06 4.359 126.965.555 148.618.555c20.336 0 38.447 3.469 54.309 10.407 15.863 6.938 29.309 16.389 40.338 28.375 11.03 11.963 19.379 25.983 25.097 42.037 5.695 16.077 8.566 33.207 8.566 51.462H90.743a26.185 26.185 0 00-.287 3.709v3.995c1.148 37.06 9.977 65.674 26.509 85.819 16.532 20.145 39.428 30.218 68.713 30.218 8.565 0 16.771-.766 24.666-2.273 7.896-1.508 15.264-3.565 22.107-6.125s13.063-5.455 18.662-8.685c5.598-3.23 10.503-6.651 14.689-10.264l4.259 3.685zm-126.013-219.8c-8.374 0-15.767 2.608-22.226 7.848-6.46 5.24-11.891 12.656-16.246 22.25-4.378 9.594-7.8 21.293-10.263 35.074-2.465 13.781-3.9 24.428-4.283 41.558l99.504-1.196c0-18.614-.957-34.596-2.847-47.898-1.89-13.303-4.761-24.236-8.541-32.778-3.804-8.565-8.613-14.833-14.403-18.829-5.814-4.043-12.704-6.029-20.695-6.029z" fill="#D6C5BF" fill-opacity=".2"/></svg><svg fill="none" viewBox="0 0 159 431" id="font_l" xmlns="http://www.w3.org/2000/svg"><path d="M123.076 3.134v387.179l35.074 35.912v4.282H.484v-4.282L35.56 390.6V56.726L8.762 30.217V25.36L119.655 0l3.421 3.134z" fill="#D6C5BF" fill-opacity=".2"/></svg><svg fill="none" viewBox="0 0 353 411" id="font_p" xmlns="http://www.w3.org/2000/svg"><path d="M0 405.65l38.782-46.462V51.56L0 5.097V.24h189.869c27.37 0 51.272 2.943 71.704 8.829 20.432 5.885 37.442 14.068 51.032 24.523 13.589 10.455 23.709 22.896 30.361 37.347 6.651 14.45 9.976 30.313 9.976 47.611 0 19.187-3.804 36.533-11.388 52.037-7.608 15.503-18.733 28.686-33.352 39.619-14.642 10.934-32.777 19.38-54.453 25.385-21.652 5.981-46.558 8.972-74.694 8.972h-21.676v-15.121l17.393-.287c10.073-.574 19.858-2.991 29.356-7.273 9.499-4.283 17.968-10.79 25.385-19.523 7.417-8.733 13.398-20.001 17.968-33.782 4.569-13.781 6.842-30.552 6.842-50.315 0-33.83-7.656-59.43-22.992-76.823-15.336-17.393-39.309-26.078-71.871-26.078h-27.178v343.827l44.476 46.462v4.857H0v-4.857z" fill="#D6C5BF" fill-opacity=".2"/></svg><svg fill="none" viewBox="0 0 244 298" id="font_r" xmlns="http://www.w3.org/2000/svg"><path d="M122.906 4.713v51.295c3.996-7.417 9.498-14.498 16.532-21.245 7.034-6.747 14.929-12.68 23.662-17.824a128.986 128.986 0 0127.37-12.107C199.969 1.89 209.204.406 218.128.406c4.378 0 8.589.287 12.68.862 4.091.574 8.206 1.722 12.393 3.42l-15.097 91.227h-4.569a830.58 830.58 0 00-11.556-14.834c-4.091-5.143-8.661-9.833-13.685-14.115a66.397 66.397 0 00-16.819-10.408c-6.173-2.655-13.063-3.995-20.672-3.995-8.565 0-16.053 1.962-22.537 5.838-6.46 3.9-11.604 8.23-15.384 12.967v185.898l36.199 35.911v4.283H.291v-4.283l35.073-35.624V58.257L3.424 31.461v-4.57L119.748 1.507l3.158 3.206z" fill="#D6C5BF" fill-opacity=".2"/></svg><svg fill="none" viewBox="0 0 302 439" id="font_y" xmlns="http://www.w3.org/2000/svg"><path d="M22.87 367.335c3.039-.574 7.226-1.052 12.537-1.435a604.412 604.412 0 0017.824-1.579c6.555-.67 13.398-1.531 20.528-2.56a146.057 146.057 0 0021.102-4.713c6.938-2.106 13.398-4.809 19.379-8.135 5.981-3.325 11.077-7.56 15.24-12.68l13.685-31.079L31.125 41.165.62 5.541V.97h157.666v4.57l-30.217 35.911 61.583 161.662 65.004-161.662-30.504-35.911V.97h77.254v4.57L266.618 41.74 157.999 300.608c-10.838 25.648-21.341 46.989-31.509 64-10.168 17.011-19.571 30.744-28.232 41.199-8.66 10.455-16.34 18.111-23.088 22.944-6.746 4.857-12.202 7.943-16.388 9.259l-38.209-65.004 2.297-5.671z" fill="#D6C5BF" fill-opacity=".2"/></svg><svg fill="none" viewBox="0 0 45 45" id="gluten-free_1" xmlns="http://www.w3.org/2000/svg"><g clip-path="url(#qclip0)" fill="#002519"><path d="M8.007 28.984C3.592 28.984 0 32.576 0 36.991 0 41.407 3.592 45 8.007 45c4.416 0 8.009-3.593 8.009-8.01 0-4.414-3.593-8.006-8.01-8.006zm0 14.258a6.257 6.257 0 01-6.25-6.251 6.256 6.256 0 016.25-6.249 6.257 6.257 0 016.251 6.249 6.258 6.258 0 01-6.251 6.251z"/><path d="M11.25 33.75a.88.88 0 00-1.244 0l-1.998 2-1.998-2a.88.88 0 00-1.243 1.244l1.998 1.998-1.998 1.998a.879.879 0 001.243 1.243l1.998-1.998 1.998 1.998a.876.876 0 001.243 0 .879.879 0 000-1.243l-1.998-1.998 1.998-1.998a.879.879 0 000-1.243zM33.187 30.641c1.898-2.2 2.831-4.917 2.63-7.68-.21-2.892-1.644-5.578-4.037-7.564a.879.879 0 00-1.152.026c-.097.088-.193.177-.286.268-.616-2.039-1.866-3.898-3.627-5.359a.88.88 0 00-1.152.026 12.38 12.38 0 00-.286.268c-.616-2.039-1.866-3.898-3.627-5.359a.879.879 0 00-1.152.026c-.097.088-.192.177-.286.268-.616-2.04-1.867-3.899-3.63-5.359a.879.879 0 00-1.151.026c-1.305 1.184-2.278 2.572-2.9 4.06-2.388-2.158-5.633-3.238-9.116-2.99a.879.879 0 00-.814.814c-.248 3.485.832 6.73 2.991 9.118-1.489.621-2.878 1.595-4.061 2.9a.879.879 0 00-.026 1.152c1.462 1.763 3.321 3.013 5.358 3.628-.09.093-.18.189-.267.285a.879.879 0 00-.026 1.152c1.462 1.763 3.321 3.013 5.358 3.628-.09.093-.18.188-.267.285a.879.879 0 00-.026 1.152c1.462 1.762 3.321 3.013 5.358 3.628a12.3 12.3 0 00-.267.285.879.879 0 00-.026 1.152c1.984 2.393 4.669 3.827 7.559 4.038.247.018.494.027.74.027 2.507 0 4.941-.928 6.946-2.657l3.28 3.281a.876.876 0 001.244 0 .88.88 0 000-1.243l-3.282-3.282zm-7.007-18.43c1.485 1.434 2.442 3.223 2.74 5.132-1.51 2.122-2.187 4.613-1.948 7.083l-2.63-2.63c-1.42-3.235-.7-6.905 1.838-9.585zm-5.064-5.065c1.484 1.434 2.44 3.223 2.739 5.132-1.51 2.122-2.187 4.613-1.948 7.083l-2.63-2.631c-1.421-3.232-.7-6.903 1.838-9.584zm-5.068-5.065c1.486 1.433 2.444 3.222 2.742 5.132-1.51 2.122-2.188 4.613-1.949 7.082l-2.63-2.63c-1.42-3.233-.7-6.904 1.837-9.584zm-11.724.94h.065c2.968 0 5.666 1.123 7.555 3.154a10.107 10.107 0 00.092 4.559 10.113 10.113 0 00-4.557-.092C5.432 8.739 4.307 6.015 4.324 3.02zm-.94 11.726c2.678-2.537 6.35-3.258 9.584-1.839l2.63 2.63c-2.47-.239-4.961.44-7.083 1.949-1.907-.296-3.696-1.253-5.13-2.74zm5.065 5.065c2.678-2.537 6.35-3.258 9.584-1.839l2.631 2.631c-2.47-.24-4.961.44-7.084 1.948-1.906-.296-3.696-1.253-5.131-2.74zm5.065 5.065c2.68-2.537 6.35-3.258 9.584-1.839l2.631 2.631c-2.47-.24-4.961.439-7.084 1.948-1.907-.296-3.696-1.253-5.13-2.74zm10.873 7.885c-2.165-.158-4.201-1.152-5.808-2.82 2.68-2.537 6.35-3.258 9.584-1.839l2.535 2.534c-1.829 1.536-4.057 2.289-6.311 2.125zm7.553-3.368l-2.534-2.534c-1.419-3.234-.698-6.905 1.84-9.584 1.667 1.608 2.661 3.646 2.818 5.812.164 2.253-.589 4.48-2.124 6.306zM44.742 42.196l-2.698-2.695a.879.879 0 10-1.242 1.243L43.5 43.44a.876.876 0 001.243 0 .879.879 0 000-1.244zM38.009 36.71a.88.88 0 000 1.244l.002.002a.873.873 0 001.242-.001.88.88 0 00-1.244-1.244z"/></g><defs><clipPath id="qclip0"><path fill="#fff" d="M0 0h45v45H0z"/></clipPath></defs></svg><svg fill="none" viewBox="0 0 50 50" id="gmo_(2)_1" xmlns="http://www.w3.org/2000/svg"><g clip-path="url(#rclip0)" fill="#002519"><path d="M18.333 48.65C25.69 53.333 36.299 45 36.666 31.89c.729.297 1.567.044 2.008-.608l.925-1.392a1.667 1.667 0 00-.475-2.316L49.7 11.665c.185-.27.287-.589.292-.917V1.666a1.667 1.667 0 00-3.05-.925c-1.108 1.709 4.542-6.816-13.5 20.292-3.767-4.667-9.658-4.592-14.258-.467.266-7.7 3.241-8.058 3.333-8.066a.833.833 0 000-1.667 3.783 3.783 0 00-2.725 1.583c-1.158-4.5-6.133-7.6-9.908-6.525-.557.158-.98.61-1.1 1.175-1.017 4.7 4.166 10.184 9.166 9.55a22.81 22.81 0 00-.45 3.983c-5.125-4.624-11.241-3.891-14.733 1C.308 25.084-.584 30.274.399 35.5c1.992 10.609 10.909 17.609 17.934 13.15zM10.383 7.5c3.783-1.017 8.641 3.541 7.875 7.383-3.784.992-8.642-3.558-7.875-7.383zM29.308 33.09l2.258-4.517 2.6 1.725-3.333 3.867c-.05-.116.483.267-1.525-1.075zm7.958-2.733c-.083 0 .833.541-6.958-4.625l.925-1.392 6.958 4.625-.925 1.392zM48.333 1.666v9.083L37.724 26.666l-4.166-2.775.916-1.391 1.359.908a.833.833 0 00.925-1.384l-1.392-.925.925-1.4 1.392.925a.833.833 0 001.158-.233.833.833 0 00-.233-1.15l-1.359-.908.925-1.4 1.392.925a.834.834 0 001.158-.233.833.833 0 00-.233-1.15l-1.392-.926.9-1.383 1.4.934a.833.833 0 00.917-1.392l-1.367-.959.925-1.391 1.4.925a.833.833 0 00.892-1.392L42.799 10l5.534-8.334zm-44.167 20.9c3-4.233 8.083-4.591 12.375-.616a2.717 2.717 0 003.592 0c4.075-3.776 9.166-3.809 12.325.566l-.292.45a1.667 1.667 0 00-2.317.458l-.925 1.392a1.667 1.667 0 00.459 2.317l.783.517-2.35 4.708a1.667 1.667 0 00.567 2.133c.125.084.533-.617-4.075 6.317a.833.833 0 00.233 1.158.833.833 0 001.15-.233l4.167-6.267.083.059c.701.469 1.642.34 2.192-.3l2.85-3.334c-.342 11.667-9.667 19.817-16.159 15.059a.833.833 0 00-.983 0 6.984 6.984 0 01-3.1 1.291c-5.5.834-11.2-5-12.708-13.058-.9-4.775-.109-9.5 2.133-12.617z"/><path d="M5 35a.833.833 0 00.833-1.033c-1.491-5.984 1.009-8.217 1.134-8.334a.835.835 0 10-1.059-1.291c-.141.116-3.466 2.916-1.666 10A.833.833 0 005 35zM8.075 23.333a.833.833 0 100-1.666.833.833 0 000 1.666z"/></g><defs><clipPath id="rclip0"><path fill="#fff" d="M0 0h50v50H0z"/></clipPath></defs></svg><svg fill="none" viewBox="0 0 50 50" id="no-milk_1" xmlns="http://www.w3.org/2000/svg"><path d="M25 17.5c1.875 0 3.333-1.1 3.333-2.5S26.875 12.5 25 12.5c-1.875 0-3.333 1.1-3.333 2.5S23.15 17.5 25 17.5zm0-3.333c1.017 0 1.667.491 1.667.833 0 .342-.65.833-1.667.833s-1.667-.491-1.667-.833c0-.342.667-.833 1.667-.833z" fill="#002519"/><path d="M25 0C11.193 0 0 11.193 0 25s11.193 25 25 25 25-11.193 25-25A25 25 0 0025 0zM1.667 25A23.267 23.267 0 017.933 9.108l6.392 6.4c-2.042 4.917-1.708 4.084-1.767 4.317-.058.233-.058-1.583-.058 21.008a2.5 2.5 0 002.5 2.5h20a2.5 2.5 0 002.5-2.5V38.7l3.333 3.333A23.333 23.333 0 011.667 25zm30-15.833H18.333v-.834c0-.92.747-1.666 1.667-1.666h10c.92 0 1.667.746 1.667 1.666v.834zm-13.592 1.666h13.892l3.466 8.334H20.367L16.3 15.1l1.775-4.267zm-3.908 25.834h16.666a.833.833 0 100-1.667H14.167v-8.333h6.666a.833.833 0 100-1.667h-6.666v-4.167h5.491l16.175 16.2v3.8c0 .46-.373.834-.833.834H15a.833.833 0 01-.833-.834v-4.166zm7.85-15.834h13.816V25h-5a.833.833 0 000 1.667h5v7.991L22.017 20.833zm-4.025-1.666H14.6l1-2.4 2.392 2.4zm24.075 21.725l-4.567-4.55V19.825c0-.242.458 1.042-4.167-10V8.333A3.333 3.333 0 0030 5H20a3.333 3.333 0 00-3.333 3.333v1.5L15 13.825 9.083 7.917c9.19-8.587 23.532-8.344 32.427.548s9.14 23.234.557 32.427z" fill="#002519"/></svg><svg fill="none" viewBox="0 0 140 20" id="stars" xmlns="http://www.w3.org/2000/svg"><g clip-path="url(#tclip0)"><path d="M19.47 7.153l-6.15-.939-2.755-5.87c-.206-.438-.925-.438-1.13 0l-2.756 5.87-6.148.94a.625.625 0 00-.353 1.053l4.467 4.579-1.056 6.472c-.084.515.465.9.92.648L10 16.87l5.492 3.036a.625.625 0 00.919-.648l-1.056-6.472 4.467-4.579a.626.626 0 00-.353-1.055z" fill="#FCC8AA"/></g><g clip-path="url(#tclip1)"><path d="M49.47 7.153l-6.15-.939-2.755-5.87c-.206-.438-.925-.438-1.13 0l-2.756 5.87-6.148.94a.625.625 0 00-.353 1.053l4.467 4.579-1.056 6.472c-.084.515.465.9.92.648L40 16.87l5.492 3.036a.625.625 0 00.919-.648l-1.056-6.472 4.467-4.579a.626.626 0 00-.353-1.055z" fill="#FCC8AA"/></g><g clip-path="url(#tclip2)"><path d="M79.47 7.153l-6.15-.939-2.755-5.87c-.206-.438-.925-.438-1.13 0l-2.756 5.87-6.148.94a.625.625 0 00-.353 1.053l4.467 4.579-1.056 6.472c-.084.515.465.9.92.648L70 16.87l5.492 3.036a.625.625 0 00.919-.648l-1.056-6.472 4.467-4.579a.626.626 0 00-.353-1.055z" fill="#FCC8AA"/></g><g clip-path="url(#tclip3)"><path d="M109.469 7.153l-6.148-.939-2.756-5.87c-.206-.438-.925-.438-1.13 0l-2.756 5.87-6.148.94a.625.625 0 00-.353 1.053l4.467 4.579-1.056 6.472c-.084.515.465.9.92.648L100 16.87l5.492 3.036a.625.625 0 00.919-.648l-1.056-6.472 4.467-4.579a.626.626 0 00-.353-1.055z" fill="#FCC8AA"/></g><g clip-path="url(#tclip4)"><path d="M139.469 7.153l-6.148-.939-2.756-5.87c-.206-.438-.925-.438-1.131 0l-2.755 5.87-6.148.94a.625.625 0 00-.353 1.053l4.467 4.579-1.056 6.472c-.084.515.465.9.919.648L130 16.87l5.492 3.036a.625.625 0 00.919-.648l-1.056-6.472 4.467-4.579a.626.626 0 00-.353-1.055z" fill="#FCC8AA"/></g><defs><clipPath id="tclip0"><path fill="#fff" d="M0 0h20v20H0z"/></clipPath><clipPath id="tclip1"><path fill="#fff" transform="translate(30)" d="M0 0h20v20H0z"/></clipPath><clipPath id="tclip2"><path fill="#fff" transform="translate(60)" d="M0 0h20v20H0z"/></clipPath><clipPath id="tclip3"><path fill="#fff" transform="translate(90)" d="M0 0h20v20H0z"/></clipPath><clipPath id="tclip4"><path fill="#fff" transform="translate(120)" d="M0 0h20v20H0z"/></clipPath></defs></svg><svg fill="none" viewBox="0 0 45 45" id="sugar-cubes_1" xmlns="http://www.w3.org/2000/svg"><path d="M44.99 24.854a.773.773 0 00-.393-.673l-.003-.002a.874.874 0 00-.142-.076l-10.267-4.588V5.707v-.02-.006l-.001-.013V5.66a.483.483 0 00-.003-.029v-.006a.876.876 0 00-.19-.467l-.004-.006-.006-.008-.007-.008-.005-.005a.533.533 0 00-.012-.014l-.003-.002a.676.676 0 00-.01-.013L33.94 5.1a.825.825 0 00-.013-.014l-.015-.015-.014-.013-.003-.002a.772.772 0 00-.013-.012l-.002-.002a.912.912 0 00-.019-.015l-.01-.008-.006-.005-.008-.006a.877.877 0 00-.191-.111L22.86.077a.879.879 0 00-.717 0l-10.786 4.82a.88.88 0 00-.192.11l-.007.006a.392.392 0 00-.007.006l-.01.008-.004.003-.015.012a.467.467 0 01-.015.014l-.002.002a.717.717 0 00-.029.028h-.001l-.013.013-.003.003a.434.434 0 00-.01.012l-.003.003-.012.014-.006.005-.006.008-.007.008-.004.005a.875.875 0 00-.19.474v.012l-.002.017a.21.21 0 000 .02v.007l-.001.02v13.808L.55 24.103a.874.874 0 00-.538.806V39.29c0 .347.204.661.52.803l10.807 4.829.005.002c.223.1.478.101.7.001l.01-.004 10.446-4.668 10.446 4.668.036.014c.22.083.465.079.681-.014l10.805-4.828a.879.879 0 00.52-.803V24.853zm-11.684 3.925l-8.65-3.866 8.65-3.866 8.65 3.866-8.65 3.866zM22.5 14.024a.879.879 0 00.88-.879v-2.04l9.046-4.042v12.452l-9.047 4.043V21.09a.879.879 0 00-1.758 0v2.467l-9.046-4.043V7.063l9.046 4.043v2.04c0 .484.394.878.88.878zm0-12.183l8.65 3.866-8.65 3.866-8.65-3.866 8.65-3.866zM11.697 21.047l8.65 3.866-8.65 3.866-8.65-3.866 8.65-3.866zM1.77 26.268l9.07 4.054a.879.879 0 00-.023.204v12.237L1.77 38.72V26.27zm10.78 4.054l9.071-4.053V38.72l-9.046 4.043V30.526a.885.885 0 00-.024-.204zm10.83-4.053l9.07 4.053a.884.884 0 00-.024.204v12.237L23.38 38.72V26.27zm10.804 16.494V30.526a.878.878 0 00-.024-.204l9.07-4.054V38.72l-9.046 4.043z" fill="#002519"/><path d="M22.5 17.98a.887.887 0 01-.832-.596.888.888 0 01.253-.943.888.888 0 011.043-.085.886.886 0 01.394.932.887.887 0 01-.858.693z" fill="#002519"/></svg><svg fill="none" viewBox="0 0 45 45" id="test_1" xmlns="http://www.w3.org/2000/svg"><path d="M26.016 20.39a.88.88 0 100 1.76.88.88 0 000-1.76zM22.5 15.117a.88.88 0 100 1.759.88.88 0 000-1.759zM11.953 37.969a.88.88 0 100 1.758.88.88 0 000-1.758z" fill="#002519"/><path d="M39.939 35.831L28.652 15.766V5.123a2.641 2.641 0 001.758-2.486A2.64 2.64 0 0027.773 0H17.227a2.64 2.64 0 00-2.637 2.637c0 1.146.735 2.123 1.758 2.486v10.643L5.06 35.83a6.095 6.095 0 00.051 6.123A6.094 6.094 0 0010.423 45h24.154a6.094 6.094 0 005.31-3.046 6.095 6.095 0 00.052-6.123zM17.993 16.427a.879.879 0 00.113-.43V5.272h.878a.879.879 0 000-1.757h-1.757a.88.88 0 010-1.758h10.546a.88.88 0 010 1.758h-1.757a.879.879 0 000 1.757h.879v10.723c0 .151.038.3.112.43l5.18 9.21c-3.163-.255-6.315.384-9.212 1.884-3.724 1.927-7.869 2.266-11.777.987l6.795-12.08zm20.377 24.64a4.353 4.353 0 01-3.793 2.175H10.423a4.353 4.353 0 01-3.793-2.176 4.353 4.353 0 01-.037-4.373l3.727-6.626a16.843 16.843 0 006.42.929 17.066 17.066 0 007.043-1.915c2.97-1.537 6.237-2.068 9.473-1.545l5.15 9.157a4.353 4.353 0 01-.036 4.373z" fill="#002519"/><path d="M18.984 20.39a2.64 2.64 0 00-2.636 2.637 2.64 2.64 0 002.636 2.637 2.64 2.64 0 002.637-2.637 2.64 2.64 0 00-2.637-2.636zm0 3.516a.88.88 0 010-1.758.88.88 0 010 1.758zM33.047 37.969H15.469a.879.879 0 100 1.758h17.578a.879.879 0 000-1.758z" fill="#002519"/></svg></svg>