<svg width="140" height="20" fill="none" xmlns="http://www.w3.org/2000/svg"><g clip-path="url(#clip0)"><path d="M19.47 7.153l-6.15-.939-2.755-5.87c-.206-.438-.925-.438-1.13 0l-2.756 5.87-6.148.94a.625.625 0 00-.353 1.053l4.467 4.579-1.056 6.472c-.084.515.465.9.92.648L10 16.87l5.492 3.036a.625.625 0 00.919-.648l-1.056-6.472 4.467-4.579a.626.626 0 00-.353-1.055z" fill="#FCC8AA"/></g><g clip-path="url(#clip1)"><path d="M49.47 7.153l-6.15-.939-2.755-5.87c-.206-.438-.925-.438-1.13 0l-2.756 5.87-6.148.94a.625.625 0 00-.353 1.053l4.467 4.579-1.056 6.472c-.084.515.465.9.92.648L40 16.87l5.492 3.036a.625.625 0 00.919-.648l-1.056-6.472 4.467-4.579a.626.626 0 00-.353-1.055z" fill="#FCC8AA"/></g><g clip-path="url(#clip2)"><path d="M79.47 7.153l-6.15-.939-2.755-5.87c-.206-.438-.925-.438-1.13 0l-2.756 5.87-6.148.94a.625.625 0 00-.353 1.053l4.467 4.579-1.056 6.472c-.084.515.465.9.92.648L70 16.87l5.492 3.036a.625.625 0 00.919-.648l-1.056-6.472 4.467-4.579a.626.626 0 00-.353-1.055z" fill="#FCC8AA"/></g><g clip-path="url(#clip3)"><path d="M109.469 7.153l-6.148-.939-2.756-5.87c-.206-.438-.925-.438-1.13 0l-2.756 5.87-6.148.94a.625.625 0 00-.353 1.053l4.467 4.579-1.056 6.472c-.084.515.465.9.92.648L100 16.87l5.492 3.036a.625.625 0 00.919-.648l-1.056-6.472 4.467-4.579a.626.626 0 00-.353-1.055z" fill="#FCC8AA"/></g><g clip-path="url(#clip4)"><path d="M139.469 7.153l-6.148-.939-2.756-5.87c-.206-.438-.925-.438-1.131 0l-2.755 5.87-6.148.94a.625.625 0 00-.353 1.053l4.467 4.579-1.056 6.472c-.084.515.465.9.919.648L130 16.87l5.492 3.036a.625.625 0 00.919-.648l-1.056-6.472 4.467-4.579a.626.626 0 00-.353-1.055z" fill="#FCC8AA"/></g><defs><clipPath id="clip0"><path fill="#fff" d="M0 0h20v20H0z"/></clipPath><clipPath id="clip1"><path fill="#fff" transform="translate(30)" d="M0 0h20v20H0z"/></clipPath><clipPath id="clip2"><path fill="#fff" transform="translate(60)" d="M0 0h20v20H0z"/></clipPath><clipPath id="clip3"><path fill="#fff" transform="translate(90)" d="M0 0h20v20H0z"/></clipPath><clipPath id="clip4"><path fill="#fff" transform="translate(120)" d="M0 0h20v20H0z"/></clipPath></defs></svg>