<svg width="45" height="45" fill="none" xmlns="http://www.w3.org/2000/svg"><path d="M44.99 24.854a.773.773 0 00-.393-.673l-.003-.002a.874.874 0 00-.142-.076l-10.267-4.588V5.681l-.001-.013V5.66a.483.483 0 00-.003-.029v-.006a.876.876 0 00-.19-.467l-.004-.006-.006-.008-.007-.008-.005-.005a.533.533 0 00-.012-.014l-.003-.002a.676.676 0 00-.01-.013L33.94 5.1a.825.825 0 00-.013-.014l-.015-.015-.014-.013-.003-.002a.772.772 0 00-.013-.012l-.002-.002a.912.912 0 00-.019-.015l-.01-.008-.006-.005-.008-.006a.877.877 0 00-.191-.111L22.86.077a.879.879 0 00-.717 0l-10.786 4.82a.88.88 0 00-.192.11l-.007.006a.392.392 0 00-.007.006l-.01.008-.004.003-.015.012a.467.467 0 01-.015.014l-.002.002a.717.717 0 00-.029.028h-.001l-.013.013-.003.003a.434.434 0 00-.01.012l-.003.003-.012.014-.006.005-.006.008-.007.008-.004.005a.875.875 0 00-.19.474v.012l-.002.017a.21.21 0 000 .02v.007l-.001.02v13.808L.55 24.103a.874.874 0 00-.538.806V39.29a.88.88 0 00.52.803l10.807 4.829.005.002c.223.1.478.101.7.001l.01-.004L22.5 40.253l10.446 4.668.036.014c.22.083.465.079.681-.014l10.805-4.828a.879.879 0 00.52-.803V24.853zm-11.684 3.925l-8.65-3.866 8.65-3.866 8.65 3.866-8.65 3.866zM22.5 14.024a.879.879 0 00.88-.879v-2.04l9.046-4.042v12.452l-9.047 4.043V21.09a.879.879 0 00-1.758 0v2.467l-9.046-4.043V7.063l9.046 4.043v2.04a.88.88 0 00.88.878zm0-12.183l8.65 3.866-8.65 3.866-8.65-3.866 8.65-3.866zM11.697 21.047l8.65 3.866-8.65 3.866-8.65-3.866 8.65-3.866zM1.77 26.268l9.07 4.054a.879.879 0 00-.023.204v12.237L1.77 38.72V26.27zm10.78 4.054l9.071-4.053V38.72l-9.046 4.043V30.526a.885.885 0 00-.024-.204zm10.83-4.053l9.07 4.053a.884.884 0 00-.024.204v12.237L23.38 38.72V26.27zm10.804 16.494V30.526a.878.878 0 00-.024-.204l9.07-4.054V38.72l-9.046 4.043z" fill="#002519"/><path d="M22.5 17.98a.887.887 0 01-.832-.596.888.888 0 01.253-.943.888.888 0 011.043-.085.886.886 0 01.394.932.887.887 0 01-.858.693z" fill="#002519"/></svg>