<svg width="89" height="195" viewBox="0 0 89 195" fill="none" xmlns="http://www.w3.org/2000/svg">
<path d="M86.312 2.91999H88.312V0.919992H86.312V2.91999ZM86.312 193V195H88.312V193H86.312ZM56.072 193H54.072V195H56.072V193ZM56.36 37.192L58.3572 37.2971L58.6252 32.2063L54.9671 35.7568L56.36 37.192ZM33.896 53.608L32.9383 51.8522L32.9298 51.8569L32.9213 51.8616L33.896 53.608ZM8.552 63.4L6.5967 63.8205L7.02008 65.7892L8.98586 65.3524L8.552 63.4ZM2.792 36.616L2.56276 34.6292L0.37333 34.8818L0.836704 37.0365L2.792 36.616ZM22.088 30.28L21.2637 28.4578L21.2554 28.4615L21.2471 28.4654L22.088 30.28ZM44.84 17.32L45.9899 18.9564L45.9899 18.9564L44.84 17.32ZM60.392 2.91999V0.919992H59.3578L58.76 1.76396L60.392 2.91999ZM84.312 2.91999V193H88.312V2.91999H84.312ZM86.312 191H56.072V195H86.312V191ZM58.072 193V52.456H54.072V193H58.072ZM58.072 52.456C58.072 45.9404 58.168 40.8931 58.3572 37.2971L54.3628 37.0869C54.168 40.7869 54.072 45.9155 54.072 52.456H58.072ZM54.9671 35.7568C48.5762 41.9597 41.2366 47.3259 32.9383 51.8522L34.8537 55.3638C43.4515 50.6741 51.0878 45.0963 57.753 38.6272L54.9671 35.7568ZM32.9213 51.8616C24.8231 56.3815 16.5563 59.5725 8.11814 61.4476L8.98586 65.3524C17.8277 63.3875 26.4569 60.0505 34.8707 55.3544L32.9213 51.8616ZM10.5073 62.9795L4.7473 36.1955L0.836704 37.0365L6.5967 63.8205L10.5073 62.9795ZM3.02125 38.6028C8.32465 37.9909 14.9825 35.7771 22.9289 32.0946L21.2471 28.4654C13.4495 32.0789 7.24335 34.0891 2.56276 34.6292L3.02125 38.6028ZM22.9123 32.1022C31.0882 28.4036 38.7815 24.0218 45.9899 18.9564L43.6901 15.6836C36.6905 20.6022 29.2158 24.8604 21.2637 28.4578L22.9123 32.1022ZM45.9899 18.9564C53.1914 13.8959 58.5768 8.94269 62.0241 4.07603L58.76 1.76396C55.6792 6.11329 50.6966 10.7601 43.6901 15.6836L45.9899 18.9564ZM60.392 4.91999H86.312V0.919992H60.392V4.91999Z" fill="#FCC8AA"/>
</svg>
