<svg width="144" height="197" viewBox="0 0 144 197" fill="none" xmlns="http://www.w3.org/2000/svg">
<path d="M9.16 172.248L8.01308 170.61L7.16 171.207V172.248H9.16ZM67.336 127.896L68.653 129.401L68.6589 129.396L68.6647 129.391L67.336 127.896ZM97 94.488L95.2879 93.4542L95.2821 93.4639L97 94.488ZM96.424 38.328L95.0098 39.7422L95.0203 39.7528L95.0311 39.7632L96.424 38.328ZM41.704 40.632L40.2192 39.2921L40.2101 39.3022L40.2011 39.3124L41.704 40.632ZM29.896 73.464L29.0566 75.2793L31.6929 76.4982L31.8913 73.6007L29.896 73.464ZM3.112 61.08L1.12299 60.8706L0.97311 62.2945L2.27265 62.8953L3.112 61.08ZM24.136 17.88L25.4513 19.3866L25.4513 19.3866L24.136 17.88ZM107.368 10.104L106.42 11.8649L106.433 11.8721L106.446 11.879L107.368 10.104ZM130.12 31.416L128.386 32.4122L128.386 32.4122L130.12 31.416ZM117.448 114.072L115.906 112.799L115.897 112.809L117.448 114.072ZM50.056 169.08L48.9776 167.396L48.056 167.986V169.08H50.056ZM50.056 169.656H48.056V171.822L50.2155 171.65L50.056 169.656ZM141.352 168.504H143.352V166.504H141.352V168.504ZM141.352 195V197H143.352V195H141.352ZM9.16 195H7.16V197H9.16V195ZM10.3069 173.886C35.293 156.396 54.7512 141.565 68.653 129.401L66.019 126.391C52.2728 138.419 32.947 153.156 8.01308 170.61L10.3069 173.886ZM68.6647 129.391C82.5626 117.037 92.6179 105.744 98.7179 95.5121L95.2821 93.4639C89.4781 103.2 79.7574 114.179 66.0073 126.401L68.6647 129.391ZM98.7121 95.5217C105.024 85.0677 108.216 74.25 108.216 63.096H104.216C104.216 73.446 101.264 83.5563 95.2879 93.4543L98.7121 95.5217ZM108.216 63.096C108.216 52.4497 104.781 43.6519 97.817 36.8928L95.0311 39.7632C101.123 45.6761 104.216 53.3903 104.216 63.096H108.216ZM97.8382 36.9138C91.0407 30.1162 81.7461 26.824 70.216 26.824V30.824C80.9579 30.824 89.1353 33.8678 95.0098 39.7422L97.8382 36.9138ZM70.216 26.824C57.8231 26.824 47.7512 30.9458 40.2192 39.2921L43.1888 41.9719C49.8648 34.5742 58.8009 30.824 70.216 30.824V26.824ZM40.2011 39.3124C32.9149 47.6105 28.8805 59.0219 27.9007 73.3273L31.8913 73.6007C32.8315 59.8741 36.6691 49.3975 43.2069 41.9516L40.2011 39.3124ZM30.7354 71.6486L3.95135 59.2646L2.27265 62.8953L29.0566 75.2793L30.7354 71.6486ZM5.10101 61.2894C6.97625 43.4746 13.7899 29.5672 25.4513 19.3866L22.8207 16.3734C10.2901 27.3128 3.08775 42.2054 1.12299 60.8706L5.10101 61.2894ZM25.4513 19.3866C37.1038 9.2138 52.5351 4.04 71.944 4.04V0.0399952C51.8009 0.0399952 35.3602 5.42619 22.8207 16.3734L25.4513 19.3866ZM71.944 4.04C85.3116 4.04 96.7807 6.67464 106.42 11.8649L108.316 8.34305C97.9873 2.78135 85.8404 0.0399952 71.944 0.0399952V4.04ZM106.446 11.879C116.119 16.9014 123.408 23.7472 128.386 32.4122L131.854 30.4197C126.464 21.0368 118.585 13.6746 108.29 8.329L106.446 11.879ZM128.386 32.4122C133.38 41.1066 135.896 50.9337 135.896 61.944H139.896C139.896 50.2982 137.228 39.7734 131.854 30.4197L128.386 32.4122ZM135.896 61.944C135.896 79.6411 129.296 96.5797 115.906 112.799L118.99 115.345C132.864 98.5403 139.896 80.7269 139.896 61.944H135.896ZM115.897 112.809C102.656 129.077 80.4003 147.277 48.9776 167.396L51.1344 170.764C82.6877 150.563 105.36 132.091 118.999 115.335L115.897 112.809ZM48.056 169.08V169.656H52.056V169.08H48.056ZM50.2155 171.65C59.7542 170.887 70.1643 170.504 81.448 170.504V166.504C70.0758 166.504 59.5578 166.889 49.8965 167.662L50.2155 171.65ZM81.448 170.504H141.352V166.504H81.448V170.504ZM139.352 168.504V195H143.352V168.504H139.352ZM141.352 193H9.16V197H141.352V193ZM11.16 195V172.248H7.16V195H11.16Z" fill="#FCC8AA"/>
</svg>
