<svg width="143" height="200" viewBox="0 0 143 200" fill="none" xmlns="http://www.w3.org/2000/svg">
<path d="M107.792 8.95199L106.898 10.7408L106.92 10.7519L106.942 10.7625L107.792 8.95199ZM129.104 27.096L127.408 28.156L127.408 28.156L129.104 27.096ZM130.832 76.92L129.053 76.0064L129.048 76.0159L129.043 76.0256L130.832 76.92ZM117.296 93.048L116.161 91.4016L116.147 91.4109L116.134 91.4205L117.296 93.048ZM100.592 98.808V96.808H98.592V98.808H100.592ZM100.592 99.384H98.592V101.384H100.592V99.384ZM120.464 104.856L119.419 106.561L119.431 106.569L119.443 106.576L120.464 104.856ZM131.984 171.672L133.624 172.816L133.624 172.816L131.984 171.672ZM107.504 190.968L106.704 189.135L106.692 189.14L107.504 190.968ZM3.248 151.8L2.38314 149.997L0.750737 150.78L1.36773 152.482L3.248 151.8ZM31.472 138.264L33.4083 137.763L32.7995 135.409L30.6071 136.461L31.472 138.264ZM45.296 163.32L43.9758 164.822L43.9888 164.834L44.002 164.845L45.296 163.32ZM99.728 163.032L101.026 164.554L101.039 164.543L101.051 164.532L99.728 163.032ZM100.016 118.392L98.8487 120.016L98.8773 120.037L98.9066 120.056L100.016 118.392ZM61.712 111.768H59.712V113.768H61.712V111.768ZM61.712 87.288V85.288H59.712V87.288H61.712ZM96.848 36.024L95.4871 37.4896L95.4999 37.5015L95.5129 37.5131L96.848 36.024ZM49.328 36.024L50.5835 37.5808L50.5892 37.5762L49.328 36.024ZM37.808 56.76L37.0522 58.6117L39.3131 59.5345L39.7723 57.1361L37.808 56.76ZM9.584 45.24L7.664 44.68L7.15927 46.4105L8.82821 47.0917L9.584 45.24ZM32.912 13.272L31.8347 11.5869L31.8283 11.591L31.822 11.5951L32.912 13.272ZM74.384 4.04C87.2102 4.04 98.0234 6.30377 106.898 10.7408L108.686 7.16314C99.1286 2.38422 87.6698 0.0399952 74.384 0.0399952V4.04ZM106.942 10.7625C116.055 15.0397 122.841 20.8485 127.408 28.156L130.8 26.036C125.767 17.9835 118.346 11.6963 108.642 7.14152L106.942 10.7625ZM127.408 28.156C132.001 35.5054 134.304 43.6795 134.304 52.728H138.304C138.304 42.9604 135.807 34.0466 130.8 26.036L127.408 28.156ZM134.304 52.728C134.304 61.4759 132.538 69.22 129.053 76.0064L132.611 77.8336C136.422 70.412 138.304 62.028 138.304 52.728H134.304ZM129.043 76.0256C125.716 82.6793 121.413 87.779 116.161 91.4016L118.431 94.6944C124.315 90.637 129.036 84.9847 132.621 77.8144L129.043 76.0256ZM116.134 91.4205C111.045 95.0552 105.876 96.808 100.592 96.808V100.808C106.828 100.808 112.795 98.7208 118.458 94.6755L116.134 91.4205ZM98.592 98.808V99.384H102.592V98.808H98.592ZM100.592 101.384C107.537 101.384 113.796 103.115 119.419 106.561L121.509 103.151C115.228 99.3011 108.239 97.384 100.592 97.384V101.384ZM119.443 106.576C125.255 110.027 129.906 114.936 133.394 121.362L136.91 119.454C133.102 112.44 127.961 106.981 121.485 103.136L119.443 106.576ZM133.394 121.362C136.86 127.747 138.624 135.185 138.624 143.736H142.624C142.624 134.623 140.74 126.509 136.91 119.454L133.394 121.362ZM138.624 143.736C138.624 153.708 135.862 162.618 130.344 170.528L133.624 172.816C139.626 164.214 142.624 154.5 142.624 143.736H138.624ZM130.344 170.528C124.824 178.439 116.976 184.653 106.704 189.135L108.304 192.801C119.152 188.067 127.624 181.417 133.624 172.816L130.344 170.528ZM106.692 189.14C96.6256 193.614 84.9115 195.88 71.504 195.88V199.88C85.3605 199.88 97.6464 197.538 108.316 192.796L106.692 189.14ZM71.504 195.88C54.6181 195.88 40.7539 192.109 29.7831 184.702C18.8205 177.301 10.5803 166.159 5.12827 151.118L1.36773 152.482C7.05169 168.161 15.7555 180.059 27.5449 188.018C39.3261 195.971 54.0219 199.88 71.504 199.88V195.88ZM4.11287 153.603L32.3369 140.067L30.6071 136.461L2.38314 149.997L4.11287 153.603ZM29.5357 138.765C32.4805 150.151 37.2473 158.909 43.9758 164.822L46.6162 161.818C40.6727 156.595 36.2235 148.649 33.4083 137.763L29.5357 138.765ZM44.002 164.845C50.828 170.637 60.4795 173.384 72.656 173.384V169.384C61.0245 169.384 52.436 166.755 46.59 161.795L44.002 164.845ZM72.656 173.384C84.4876 173.384 94.028 170.522 101.026 164.554L98.4301 161.51C92.372 166.678 83.8644 169.384 72.656 169.384V173.384ZM101.051 164.532C108.047 158.359 111.52 150.21 111.52 140.28H107.52C107.52 149.166 104.465 156.185 98.4048 161.532L101.051 164.532ZM111.52 140.28C111.52 129.509 108.208 121.449 101.125 116.728L98.9066 120.056C104.496 123.783 107.52 130.315 107.52 140.28H111.52ZM101.183 116.768C94.5202 111.979 84.109 109.768 70.352 109.768V113.768C83.859 113.768 93.2238 115.973 98.8487 120.016L101.183 116.768ZM70.352 109.768H61.712V113.768H70.352V109.768ZM63.712 111.768V87.288H59.712V111.768H63.712ZM61.712 89.288H69.488V85.288H61.712V89.288ZM69.488 89.288C81.6157 89.288 91.0831 86.802 97.5425 81.4886C104.077 76.1137 107.2 68.1265 107.2 57.912H103.2C103.2 67.2815 100.371 73.9823 95.0015 78.3994C89.5569 82.878 81.1683 85.288 69.488 85.288V89.288ZM107.2 57.912C107.2 47.9155 104.287 40.0075 98.1831 34.5348L95.5129 37.5131C100.545 42.0245 103.2 48.7085 103.2 57.912H107.2ZM98.2089 34.5584C92.3468 29.115 84.112 26.536 73.808 26.536V30.536C83.472 30.536 90.5972 32.949 95.4871 37.4896L98.2089 34.5584ZM73.808 26.536C63.3058 26.536 54.6585 29.116 48.0668 34.4718L50.5892 37.5762C56.2855 32.948 63.9582 30.536 73.808 30.536V26.536ZM48.0725 34.4672C41.6811 39.6215 37.642 46.9927 35.8437 56.3838L39.7723 57.1361C41.43 48.4793 45.0709 42.0265 50.5835 37.5808L48.0725 34.4672ZM38.5638 54.9083L10.3398 43.3883L8.82821 47.0917L37.0522 58.6117L38.5638 54.9083ZM11.504 45.8C15.409 32.4116 22.9039 22.1626 34.002 14.9489L31.822 11.5951C19.8801 19.3574 11.823 30.4204 7.664 44.68L11.504 45.8ZM33.9893 14.957C45.3346 7.70352 58.7725 4.04 74.384 4.04V0.0399952C58.1235 0.0399952 43.9134 3.86447 31.8347 11.5869L33.9893 14.957Z" fill="#FCC8AA"/>
</svg>
