<svg width="50" height="50" viewBox="0 0 50 50" fill="none" xmlns="http://www.w3.org/2000/svg">
<path d="M49.9381 8.86888C49.919 8.81761 49.8942 8.76837 49.8649 8.72239C49.8515 8.70123 49.8385 8.68048 49.8234 8.66054C49.786 8.61253 49.7432 8.56858 49.6956 8.52993C49.6834 8.51894 49.6724 8.50633 49.659 8.49656L49.6509 8.48883C49.5894 8.44611 49.5227 8.41152 49.4523 8.38629L49.4385 8.37978L25.2718 0.0464477C25.0956 -0.0141805 24.9044 -0.0141805 24.7282 0.0464477L0.561523 8.37978L0.547689 8.3871C0.476888 8.41193 0.410156 8.44611 0.349121 8.48883L0.340983 8.49656C0.327555 8.50633 0.316569 8.51894 0.304362 8.52993C0.256755 8.56858 0.21403 8.61253 0.176595 8.66054C0.16154 8.68048 0.148519 8.70123 0.135091 8.72239C0.105794 8.76837 0.0809733 8.81761 0.061849 8.86888C0.0520833 8.89044 0.0439453 8.91282 0.036621 8.93561C0.0134277 9.01048 0.00122071 9.0886 0 9.16713V40.8338C0 41.1894 0.22583 41.5056 0.561523 41.6216L24.7282 49.9549H24.7384C24.9076 50.0135 25.0924 50.0135 25.2616 49.9549H25.2718L49.4385 41.6216C49.7742 41.5056 50 41.1894 50 40.8338V9.16713C49.9988 9.0886 49.9866 9.01048 49.9634 8.93561C49.9561 8.91282 49.9479 8.89044 49.9381 8.86888ZM25 16.6187L3.38989 9.16713L12.9167 5.88222L34.5268 13.3338L25 16.6187ZM25 1.71556L46.6101 9.16713L37.0833 12.452L15.4724 5.00047L25 1.71556ZM1.66667 10.3337L24.1667 18.0921V48.0005L1.66667 40.2397V10.3337ZM37.9167 43.8339V36.9454L40.59 36.0238C44.2253 34.7685 46.665 31.3465 46.6667 27.5005C46.6667 27.2311 46.5365 26.9784 46.3171 26.8222C46.0978 26.6659 45.8162 26.6252 45.5615 26.7131L42.3267 27.8288C39.7734 28.711 37.7506 30.6926 36.816 33.2272C36.5287 32.8699 36.1947 32.5538 35.8223 32.2864C34.5121 31.3404 32.8214 31.0958 31.2968 31.6313L28.0615 32.7507C27.7258 32.8663 27.5 33.1828 27.5 33.5381C27.5028 36.2891 29.7249 38.5222 32.476 38.5381C33.0355 38.5372 33.5909 38.4428 34.1191 38.2589L36.25 37.5249V44.4113L25.8333 48.0005V18.0945L48.3333 10.3337V40.2397L37.9167 43.8339ZM38.0159 35.1506C38.4578 32.4903 40.321 30.2857 42.8699 29.4056L44.9007 28.7049C44.4584 31.3648 42.5956 33.5694 40.0468 34.4499L38.0159 35.1506ZM36.2008 35.7756L33.5767 36.6806C32.6562 36.9975 31.6435 36.8958 30.8048 36.4022C29.9658 35.9087 29.3852 35.0725 29.2159 34.1138L31.84 33.2089C32.7604 32.8919 33.7732 32.9936 34.6118 33.4872C35.4508 33.9808 36.0315 34.817 36.2008 35.7756Z" fill="#002519"/>
<path d="M15.8765 17.2657L11.5275 15.7654C10.2722 15.341 8.90994 16.0096 8.47781 17.2624C8.04609 18.5148 8.70649 19.8812 9.95689 20.3207L14.3059 21.8205C15.5611 22.2453 16.9234 21.5764 17.3556 20.3239C17.7873 19.0711 17.1269 17.7047 15.8765 17.2657ZM15.5217 20.1473C15.3272 20.2885 15.0757 20.3251 14.8491 20.2446L10.5009 18.7447C10.2018 18.6414 10.0008 18.3598 10.0008 18.0432C9.99962 17.8028 10.1152 17.5765 10.3109 17.437C10.5066 17.2974 10.7581 17.2616 10.9851 17.3413L15.3341 18.8416C15.6336 18.9449 15.8342 19.2265 15.8342 19.5431C15.8354 19.7836 15.7186 20.009 15.5217 20.1473Z" fill="#002519"/>
</svg>
