<svg width="50" height="50" viewBox="0 0 50 50" fill="none" xmlns="http://www.w3.org/2000/svg">
<g clip-path="url(#clip0)">
<path d="M8.75829 22.675C9.09996 23.95 8.21663 25.9333 9.12496 27.4917C10.0333 29.05 12.2333 29.325 13.1083 30.2083C13.6611 30.9919 14.133 31.8295 14.5166 32.7083L10.1 45.6C9.89174 46.2705 10.1261 46.9997 10.686 47.4233C11.2459 47.847 12.0113 47.8743 12.6 47.4917L15.3666 45.5333L16.3416 48.775C16.5475 49.4705 17.1796 49.953 17.9048 49.9683C18.63 49.9835 19.2817 49.5279 19.5166 48.8417L23.8333 36.4167C24.5788 36.7334 25.4211 36.7334 26.1666 36.4167L30.45 48.875C30.6848 49.5613 31.3366 50.0168 32.0618 50.0016C32.787 49.9864 33.4191 49.5039 33.625 48.8083L34.6 45.5667L37.3666 47.5C37.9553 47.8826 38.7207 47.8553 39.2806 47.4317C39.8405 47.008 40.0748 46.2789 39.8666 45.6083L35.4833 32.7417C35.8684 31.8652 36.3372 31.028 36.8833 30.2417C37.7916 29.3083 40 29.0583 40.875 27.5C41.75 25.9417 40.9166 23.9167 41.2416 22.6833C41.5666 21.45 43.3333 20.1583 43.3333 18.3333C43.3333 16.5083 41.55 15.15 41.2416 13.9833C40.9333 12.8167 41.7833 10.725 40.875 9.16667C39.9666 7.60833 37.7666 7.33333 36.8916 6.45C36.0166 5.56667 35.7416 3.33333 34.1666 2.45C32.5916 1.56667 30.5833 2.45 29.35 2.09167C28.1166 1.73333 26.8333 0 25 0C23.1666 0 21.825 1.775 20.65 2.09167C19.35 2.43333 17.4 1.54167 15.8333 2.45C14.2666 3.35833 14.0083 5.55 13.1166 6.44167C12.225 7.33333 9.99996 7.59167 9.16663 9.16667C8.33329 10.7417 9.16663 12.75 8.79996 13.9833C8.43329 15.2167 6.66663 16.4917 6.66663 18.3333C6.66663 20.175 8.44163 21.4917 8.75829 22.675ZM17.975 48.3333L17 45.075C16.8353 44.567 16.4371 44.1686 15.9292 44.0037C15.4212 43.8388 14.865 43.9273 14.4333 44.2417L11.6666 46.175C16.1333 33.1667 15.75 34.1667 15.8333 34.1667C17.3666 35.0583 19.4166 34.1667 20.65 34.525C21.251 34.783 21.8122 35.1253 22.3166 35.5417L17.975 48.3333ZM35.5666 44.1667C35.1235 43.8542 34.5561 43.7767 34.0455 43.9591C33.5348 44.1415 33.1448 44.5608 33 45.0833L32.025 48.3333L27.6416 35.575C28.1419 35.1551 28.7041 34.8149 29.3083 34.5667C30.6166 34.2167 32.5583 35.1083 34.125 34.2C34.2083 34.15 33.8333 33.1833 38.2916 46.1667L35.5666 44.1667ZM9.26663 16.4167C10.4583 14.75 10.625 14.2 10.4333 12.0417C10.2416 9.88333 10.3583 9.73333 12.3 8.84167C14.2416 7.95 14.625 7.55833 15.5083 5.625C16.3916 3.69167 16.6666 3.575 18.7166 3.76667C20.7666 3.95833 21.4083 3.76667 23.0916 2.6C24.775 1.43333 25.15 1.35833 26.9083 2.6C28.6666 3.84167 29.1666 3.95 31.2833 3.76667C33.4 3.58333 33.6 3.69167 34.4916 5.625C35.3833 7.55833 35.7833 7.95 37.7 8.84167C39.6166 9.73333 39.7583 9.95833 39.5666 12.0417C39.375 14.125 39.5666 14.7417 40.7333 16.4167C41.9 18.0917 41.975 18.475 40.7333 20.2333C39.4916 21.9917 39.375 22.45 39.5666 24.6083C39.7583 26.7667 39.6416 26.9167 37.7 27.8167C35.7583 28.7167 35.3833 29.0917 34.4916 31.025C33.6 32.9583 33.375 33.075 31.2833 32.8917C29.1916 32.7083 28.5916 32.8917 26.9083 34.05C25.225 35.2083 24.85 35.2917 23.0916 34.05C22.223 33.2645 21.096 32.8255 19.925 32.8167C18.725 32.8167 17.3666 33.1583 16.6666 32.7583C15.7083 32.2 15.45 30.1833 14.2916 29.0333C13.1333 27.8833 11.1083 27.6 10.5666 26.6667C10.025 25.7333 10.7916 23.8333 10.3666 22.2583C9.94163 20.6833 8.33329 19.4417 8.33329 18.3333C8.45951 17.6199 8.78281 16.956 9.26663 16.4167Z" fill="#002519"/>
<path d="M25 30.8333C31.9036 30.8333 37.5 25.2368 37.5 18.3333C37.5 11.4297 31.9036 5.83328 25 5.83328C18.0964 5.83328 12.5 11.4297 12.5 18.3333C12.5 25.2368 18.0964 30.8333 25 30.8333ZM25 7.49995C30.9831 7.49995 35.8333 12.3502 35.8333 18.3333C35.8333 24.3164 30.9831 29.1666 25 29.1666C19.0169 29.1666 14.1667 24.3164 14.1667 18.3333C14.1667 15.4601 15.308 12.7046 17.3397 10.673C19.3713 8.64131 22.1268 7.49995 25 7.49995Z" fill="#002519"/>
<path d="M19.2083 21.0249C19.6522 21.0027 20.0005 20.636 20 20.1916C19.9608 18.7146 20.5409 17.2885 21.6 16.2582C22.8583 15.0082 24.3416 14.6749 26.1666 14.3666C27.426 14.15 28.6299 13.6855 29.7083 12.9999C30.7916 17.1666 28.8166 22.3332 24.7083 23.6999C23.7452 24.0169 22.7388 24.1827 21.725 24.1916C22.9343 21.9369 24.6449 19.9897 26.725 18.4999C26.9044 18.3698 27.0246 18.1736 27.059 17.9547C27.0934 17.7357 27.0392 17.5121 26.9083 17.3332C26.6378 16.9648 26.121 16.883 25.75 17.1499C23.0493 19.0216 20.9365 21.6228 19.6583 24.6499C19.5725 24.8909 19.6022 25.158 19.7388 25.3742C19.8754 25.5905 20.1038 25.7321 20.3583 25.7582C24.7166 26.2249 28.6333 24.4582 30.575 20.2582C31.8745 17.4542 32.0005 14.2473 30.925 11.3499C30.8296 11.1126 30.6305 10.9323 30.3849 10.8607C30.1394 10.7892 29.8746 10.8344 29.6666 10.9832C28.5587 11.8497 27.258 12.4358 25.875 12.6916C23.8333 13.0332 22.0166 13.4499 20.4083 15.0416C19.0243 16.4045 18.2721 18.2834 18.3333 20.2249C18.3419 20.4475 18.4393 20.6574 18.6037 20.8077C18.7681 20.958 18.9858 21.0362 19.2083 21.0249Z" fill="#002519"/>
</g>
<defs>
<clipPath id="clip0">
<rect width="50" height="50" fill="white"/>
</clipPath>
</defs>
</svg>
