<svg width="270" height="303" viewBox="0 0 270 303" fill="none" xmlns="http://www.w3.org/2000/svg">
<path d="M168.625 259.021C156.83 271.941 143.049 282.396 127.283 290.387C111.492 298.378 94.6729 302.374 76.8248 302.374C65.7953 302.374 55.6272 300.938 46.3204 298.091C37.0135 295.244 28.9747 291.105 22.2278 285.698C15.481 280.291 10.1935 273.687 6.41334 265.888C2.60926 258.088 0.719238 249.164 0.719238 239.092C0.719238 223.134 5.24101 208.97 14.2607 196.625C23.2805 184.279 35.3626 173.633 50.4593 164.685C65.58 155.761 83.0932 148.631 103.071 143.296C123.024 137.985 144.03 134.372 166.089 132.458V96.4985C166.089 87.5745 164.797 79.3921 162.237 71.9753C159.677 64.5586 155.634 58.2423 150.131 53.0267C144.628 47.811 137.594 43.7677 129.029 40.9206C120.488 38.0735 110.224 36.638 98.2377 36.638C84.9353 36.638 72.3508 38.2649 60.4601 41.4948C48.5693 44.7247 36.3675 49.8686 23.8308 56.8786L19.8353 51.4716C35.243 36.0878 54.0481 23.6707 76.2745 14.2681C98.5248 4.86557 123.311 0.152344 150.681 0.152344C171.209 0.152344 188.124 2.56877 201.426 7.42555C214.729 12.2823 225.232 19.101 232.936 27.9532C240.64 36.7816 245.999 47.3325 249.037 59.6061C252.076 71.8557 253.607 85.3016 253.607 99.9437V267.467L269.182 297.66L167.812 298.474L168.625 259.021ZM125.01 261.007C141.159 261.007 154.844 256.629 166.065 247.896V143.272C153.528 145.353 142.212 148.535 132.139 152.818C122.067 157.101 113.502 162.364 106.492 168.633C99.4579 174.901 94.0508 182.126 90.2467 190.309C86.4426 198.491 84.5525 207.415 84.5525 217.105C84.5525 230.216 87.7346 240.814 94.0987 248.901C100.439 256.964 110.75 261.007 125.01 261.007Z" fill="#D6C5BF" fill-opacity="0.2"/>
</svg>
