<svg width="277" height="304" viewBox="0 0 277 304" fill="none" xmlns="http://www.w3.org/2000/svg">
<path d="M270.061 232.915C263.219 243.753 255.563 253.49 247.117 262.127C238.648 270.788 229.101 278.181 218.455 284.377C207.808 290.55 196.013 295.263 183.094 298.493C170.174 301.723 155.915 303.35 140.34 303.35C119.238 303.35 100.098 299.737 82.8955 292.512C65.6934 285.287 51.0034 275.262 38.8495 262.438C26.6956 249.614 17.317 234.254 10.7615 216.382C4.20608 198.51 0.928345 178.844 0.928345 157.359C0.928345 134.176 4.54102 112.931 11.7664 93.647C18.9918 74.3634 29.112 57.8312 42.1273 44.0504C55.1425 30.2696 70.7416 19.5751 88.9007 11.9669C107.06 4.35876 126.965 0.554688 148.618 0.554688C168.954 0.554688 187.065 4.02382 202.927 10.9621C218.79 17.9003 232.236 27.3507 243.265 39.3372C254.295 51.2997 262.644 65.3198 268.362 81.3735C274.057 97.4511 276.928 114.581 276.928 132.836H90.7429C90.5515 134.176 90.4559 135.396 90.4559 136.545C90.4559 137.693 90.4559 139.009 90.4559 140.54C91.6043 177.6 100.433 206.214 116.965 226.359C133.497 246.504 156.393 256.577 185.678 256.577C194.243 256.577 202.449 255.811 210.344 254.304C218.24 252.796 225.608 250.739 232.451 248.179C239.294 245.619 245.514 242.724 251.113 239.494C256.711 236.264 261.616 232.843 265.802 229.23L270.061 232.915ZM144.048 13.1153C135.674 13.1153 128.281 15.7232 121.822 20.9627C115.362 26.2023 109.931 33.6191 105.576 43.213C101.198 52.807 97.7769 64.5063 95.3126 78.2872C92.8484 92.068 91.4129 102.715 91.0301 119.845L190.534 118.649C190.534 100.035 189.577 84.0531 187.687 70.7508C185.797 57.4484 182.926 46.5147 179.146 37.9734C175.342 29.4083 170.533 23.1399 164.743 19.1444C158.929 15.1011 152.039 13.1153 144.048 13.1153Z" fill="#D6C5BF" fill-opacity="0.2"/>
</svg>
