<svg width="302" height="439" viewBox="0 0 302 439" fill="none" xmlns="http://www.w3.org/2000/svg">
<path d="M22.8701 367.335C25.9086 366.761 30.0956 366.283 35.407 365.9C40.7183 365.517 46.6756 364.991 53.231 364.321C59.7865 363.651 66.6291 362.79 73.7588 361.761C80.8884 360.708 87.9224 359.153 94.8607 357.048C101.799 354.942 108.259 352.239 114.24 348.913C120.221 345.588 125.317 341.353 129.48 336.233L143.165 305.154L31.1243 41.1653L0.619873 5.54087V0.971191H158.286V5.54087L128.069 41.4524L189.652 203.114L254.656 41.4524L224.152 5.54087V0.971191H301.406V5.54087L266.618 41.7395L157.999 300.608C147.161 326.256 136.658 347.597 126.49 364.608C116.322 381.619 106.919 395.352 98.258 405.807C89.5971 416.262 81.9173 423.918 75.1704 428.751C68.4235 433.608 62.9685 436.694 58.7817 438.01L20.5734 373.006L22.8701 367.335Z" fill="#D6C5BF" fill-opacity="0.2"/>
</svg>
