<svg width="244" height="298" viewBox="0 0 244 298" fill="none" xmlns="http://www.w3.org/2000/svg">
<path d="M122.906 4.71277V56.0081C126.902 48.5913 132.404 41.5095 139.438 34.7626C146.472 28.0158 154.367 22.0823 163.1 16.9385C171.833 11.7946 180.972 7.77517 190.47 4.83239C199.969 1.88961 209.204 0.40625 218.128 0.40625C222.506 0.40625 226.717 0.693352 230.808 1.26755C234.899 1.84175 239.014 2.99016 243.201 4.68884L228.104 95.915H223.535C219.922 91.1539 216.07 86.2254 211.979 81.0815C207.888 75.9376 203.318 71.2483 198.294 66.9657C193.246 62.6831 187.647 59.214 181.475 56.5583C175.302 53.9027 168.412 52.5628 160.803 52.5628C152.238 52.5628 144.75 54.5247 138.266 58.4006C131.806 62.3003 126.662 66.6308 122.882 71.3679V257.266L159.081 293.177V297.46H0.290222V293.177L35.3643 257.553V58.257L3.4244 31.461V26.8913L119.748 1.50681L122.906 4.71277Z" fill="#D6C5BF" fill-opacity="0.2"/>
</svg>
