<svg width="353" height="411" viewBox="0 0 353 411" fill="none" xmlns="http://www.w3.org/2000/svg">
<path d="M0 405.65L38.7825 359.188V51.5595L0 5.09702V0.240234H189.869C217.239 0.240234 241.141 3.18301 261.573 9.06857C282.005 14.9541 299.015 23.1365 312.605 33.5917C326.194 44.047 336.314 56.488 342.966 70.9387C349.617 85.3895 352.942 101.252 352.942 118.55C352.942 137.737 349.138 155.083 341.554 170.587C333.946 186.09 322.821 199.273 308.202 210.206C293.56 221.14 275.425 229.586 253.749 235.591C232.097 241.572 207.191 244.563 179.055 244.563H157.379V229.442L174.772 229.155C184.845 228.581 194.63 226.164 204.128 221.882C213.627 217.599 222.096 211.092 229.513 202.359C236.93 193.626 242.911 182.358 247.481 168.577C252.05 154.796 254.323 138.025 254.323 118.262C254.323 84.4325 246.667 58.8327 231.331 41.4392C215.995 24.0457 192.022 15.3609 159.46 15.3609H132.282V359.188L176.758 405.65V410.507H0V405.65Z" fill="#D6C5BF" fill-opacity="0.2"/>
</svg>
