<svg width="33" height="46" viewBox="0 0 33 46" fill="none" xmlns="http://www.w3.org/2000/svg">
<path d="M16.5 0C16.5 0 33 21.1799 33 29.8457C33 38.7559 25.6009 46 16.5 46C7.3991 46 0 38.7559 0 29.8457C0 21.1799 16.5 0 16.5 0ZM16.5 44.5331C24.7685 44.5331 31.5017 37.9409 31.5017 29.8457C31.5017 22.6016 19.3579 6.1937 16.5 2.42677C13.6421 6.18465 1.49832 22.5925 1.49832 29.8457C1.49832 37.9409 8.2315 44.5331 16.5 44.5331Z" fill="#002519"/>
<path d="M15.7443 23.144H17.2556V36.3174H15.7443V23.144Z" fill="#002519"/>
<path d="M23.2275 28.9909V30.4705H9.77221V28.9909H23.2275Z" fill="#002519"/>
</svg>
