<svg width="45" height="45" viewBox="0 0 45 45" fill="none" xmlns="http://www.w3.org/2000/svg">
<g clip-path="url(#clip0)">
<path d="M8.00669 28.9842C3.59186 28.9842 0.00012207 32.576 0.00012207 36.9908C0.00012207 41.407 3.59186 44.9999 8.00669 44.9999C12.4229 44.9999 16.0158 41.407 16.0158 36.9908C16.0158 32.576 12.4229 28.9842 8.00669 28.9842ZM8.00669 43.2421C4.56112 43.2421 1.75785 40.4378 1.75785 36.9908C1.75785 33.5452 4.56103 30.742 8.00669 30.742C11.4537 30.742 14.258 33.5451 14.258 36.9908C14.258 40.4378 11.4537 43.2421 8.00669 43.2421Z" fill="#002519"/>
<path d="M11.2491 33.7509C10.9058 33.4078 10.3495 33.4078 10.0061 33.7509L8.00792 35.7491L6.00972 33.7509C5.66642 33.4078 5.11008 33.4078 4.76669 33.7509C4.42347 34.0941 4.42347 34.6507 4.76669 34.994L6.76488 36.9922L4.76669 38.9904C4.42347 39.3336 4.42347 39.8901 4.76669 40.2334C4.93834 40.405 5.16325 40.4908 5.38816 40.4908C5.61316 40.4908 5.83799 40.405 6.00964 40.2334L8.00783 38.2352L10.006 40.2334C10.1777 40.405 10.4026 40.4908 10.6275 40.4908C10.8524 40.4908 11.0773 40.405 11.249 40.2334C11.5922 39.8902 11.5922 39.3337 11.249 38.9904L9.25078 36.9922L11.249 34.994C11.5924 34.6507 11.5924 34.0941 11.2491 33.7509Z" fill="#002519"/>
<path d="M33.1873 30.6414C35.085 28.4411 36.0181 25.7236 35.8175 22.9604C35.6076 20.0694 34.1735 17.3833 31.7796 15.3972C31.443 15.1178 30.9518 15.1287 30.628 15.4227C30.5307 15.5108 30.4354 15.6001 30.3419 15.6906C29.7258 13.6523 28.4758 11.7927 26.7147 10.3322C26.3781 10.053 25.887 10.0639 25.5631 10.3577C25.4659 10.4459 25.3705 10.5352 25.2769 10.6257C24.6608 8.58733 23.4108 6.72774 21.6498 5.26734C21.3132 4.98812 20.8223 4.99901 20.4982 5.29292C20.401 5.38116 20.3056 5.47046 20.212 5.5609C19.5955 3.52193 18.3445 1.66216 16.5819 0.202121C16.2453 -0.0769316 15.7545 -0.0659453 15.4307 0.228049C14.1256 1.41185 13.1525 2.79999 12.5315 4.28807C10.1433 2.12965 6.8981 1.05009 3.41508 1.29785C2.97879 1.32888 2.63171 1.67596 2.60069 2.11225C2.35292 5.59685 3.43292 8.84159 5.59196 11.2298C4.103 11.851 2.71442 12.8247 1.53071 14.1307C1.23698 14.4547 1.22617 14.9454 1.5054 15.282C2.96728 17.0447 4.82634 18.2948 6.86277 18.91C6.77259 19.0033 6.68356 19.0985 6.59558 19.1955C6.30185 19.5196 6.29104 20.0103 6.57027 20.3469C8.03207 22.1096 9.8913 23.3598 11.9277 23.975C11.8376 24.0682 11.7486 24.1633 11.6607 24.2602C11.3667 24.5842 11.3558 25.075 11.6351 25.4118C13.0969 27.1744 14.9562 28.4247 16.9927 29.0398C16.9025 29.1331 16.8135 29.2282 16.7256 29.3251C16.4318 29.6492 16.4208 30.1399 16.7 30.4766C18.6841 32.8699 21.3687 34.3041 24.259 34.5148C24.5064 34.5329 24.7533 34.5419 24.9998 34.5419C27.5062 34.5419 29.9402 33.6135 31.9446 31.8848L35.2259 35.166C35.3975 35.3375 35.6224 35.4234 35.8473 35.4234C36.0723 35.4234 36.2972 35.3375 36.4688 35.166C36.812 34.8228 36.812 34.2662 36.4688 33.9229L33.1873 30.6414ZM26.1803 12.2112C27.6648 13.6446 28.6215 15.4338 28.9195 17.3426C27.4108 19.4648 26.7326 21.9561 26.972 24.426L24.3411 21.7951C22.9223 18.5614 23.6429 14.8906 26.1803 12.2112ZM21.1155 7.14627C22.5998 8.57968 23.5565 10.3689 23.8545 12.2777C22.3458 14.4001 21.6676 16.8911 21.9071 19.361L19.2761 16.73C17.8559 13.4979 18.5767 9.82693 21.1155 7.14627ZM16.0484 2.08113C17.534 3.5141 18.4915 5.30347 18.7896 7.21263C17.2803 9.33519 16.6017 11.826 16.841 14.2951L14.2111 11.6653C12.7904 8.43202 13.5101 4.76101 16.0484 2.08113ZM4.32396 3.02104C4.34576 3.02086 4.36747 3.02086 4.38926 3.02086C7.35707 3.02086 10.0547 4.14384 11.9437 6.17455C11.6305 7.67159 11.6543 9.22225 12.0364 10.734C10.525 10.3526 8.97504 10.329 7.47888 10.6419C5.43235 8.73885 4.30735 6.01521 4.32396 3.02104ZM3.38415 14.7475C6.06209 12.2097 9.73319 11.4891 12.9684 12.9084L15.5989 15.5389C13.1284 15.2992 10.6366 15.9776 8.51459 17.4868C6.60789 17.1908 4.81905 16.2341 3.38415 14.7475ZM8.44902 19.8124C11.1271 17.2746 14.7981 16.554 18.0332 17.9733L20.6642 20.6043C18.1943 20.3648 15.7029 21.0433 13.5804 22.5519C11.6735 22.256 9.88401 21.299 8.44902 19.8124ZM13.5142 24.8774C16.1935 22.34 19.8646 21.6194 23.0981 23.038L25.7291 25.669C23.259 25.4295 20.7677 26.1079 18.6453 27.6167C16.7383 27.3209 14.9491 26.3641 13.5142 24.8774ZM24.3868 32.7616C22.2219 32.6036 20.1855 31.6099 18.5788 29.9426C21.2581 27.4047 24.9289 26.6842 28.1632 28.1031L30.6976 30.6375C28.8692 32.173 26.6408 32.9258 24.3868 32.7616ZM31.9403 29.3944L29.4058 26.8599C27.9872 23.6262 28.7081 19.9553 31.2453 17.2759C32.9134 18.8843 33.907 20.9219 34.0642 23.0877C34.2279 25.3409 33.475 27.5671 31.9403 29.3944Z" fill="#002519"/>
<path d="M44.7422 42.1963L42.0441 39.5007C41.7008 39.1575 41.1442 39.1579 40.8012 39.5013C40.4581 39.8446 40.4584 40.4012 40.8018 40.7443L43.4999 43.4399C43.6714 43.6114 43.8962 43.6971 44.121 43.6971C44.3461 43.6971 44.5712 43.6111 44.7427 43.4393C45.0859 43.0959 45.0856 42.5394 44.7422 42.1963Z" fill="#002519"/>
<path d="M38.0086 36.7107C37.6654 37.054 37.6654 37.6105 38.0086 37.9538L38.0111 37.9563C38.1824 38.1276 38.4065 38.2131 38.6308 38.2131C38.8558 38.2131 39.0809 38.1269 39.2528 37.9549C39.596 37.6117 39.5949 37.054 39.2516 36.7107C38.9083 36.3675 38.3519 36.3675 38.0086 36.7107Z" fill="#002519"/>
</g>
<defs>
<clipPath id="clip0">
<rect width="45" height="45" fill="white"/>
</clipPath>
</defs>
</svg>
