<svg width="50" height="50" viewBox="0 0 50 50" fill="none" xmlns="http://www.w3.org/2000/svg">
<g clip-path="url(#clip0)">
<path d="M18.3326 48.6495C25.6909 53.3329 36.2992 44.9995 36.6659 31.8912C37.395 32.1882 38.2325 31.9345 38.6742 31.2829L39.5992 29.8912C39.8449 29.5214 39.933 29.0689 39.8438 28.634C39.7546 28.1991 39.4956 27.8178 39.1242 27.5745L49.6992 11.6662C49.8844 11.3959 49.9859 11.0771 49.9909 10.7495V1.6662C49.9889 0.933736 49.5089 0.28844 48.808 0.0758613C48.107 -0.136718 47.3494 0.133249 46.9409 0.741196C45.8326 2.44953 51.4826 -6.07547 33.4409 21.0329C29.6742 16.3662 23.7826 16.4412 19.1826 20.5662C19.4492 12.8662 22.4242 12.5079 22.5159 12.4995C22.9761 12.4995 23.3492 12.1264 23.3492 11.6662C23.3492 11.206 22.9761 10.8329 22.5159 10.8329C21.4205 10.9392 20.4257 11.5172 19.7909 12.4162C18.6326 7.9162 13.6576 4.8162 9.88257 5.8912C9.32636 6.04854 8.90294 6.50083 8.78257 7.0662C7.76591 11.7662 12.9492 17.2495 17.9492 16.6162C17.6826 17.9282 17.532 19.2611 17.4992 20.5995C12.3742 15.9745 6.25757 16.7079 2.76591 21.5995C0.307572 25.0829 -0.584094 30.2745 0.399239 35.4995C2.39091 46.1079 11.3076 53.1079 18.3326 48.6495ZM10.3826 7.49953C14.1659 6.48286 19.0242 11.0412 18.2576 14.8829C14.4742 15.8745 9.61591 11.3245 10.3826 7.49953ZM29.3076 33.0912L31.5659 28.5745L34.1659 30.2995L30.8326 34.1662C30.7826 34.0495 31.3159 34.4329 29.3076 33.0912ZM37.2659 30.3579C37.1826 30.3579 38.0992 30.8995 30.3076 25.7329L31.2326 24.3412L38.1909 28.9662L37.2659 30.3579ZM48.3326 1.6662V10.7495L37.7242 26.6662L33.5576 23.8912L34.4742 22.4995L35.8326 23.4079C36.0169 23.5311 36.2428 23.5758 36.4602 23.532C36.6777 23.4882 36.8686 23.3595 36.9909 23.1745C37.2419 22.7921 37.1378 22.2789 36.7576 22.0245L35.3659 21.0995L36.2909 19.6995L37.6826 20.6245C37.8669 20.7478 38.0928 20.7924 38.3102 20.7487C38.5277 20.7049 38.7186 20.5762 38.8409 20.3912C39.0919 20.0088 38.9878 19.4955 38.6076 19.2412L37.2492 18.3329L38.1742 16.9329L39.5659 17.8579C39.7503 17.9811 39.9762 18.0258 40.1936 17.982C40.411 17.9382 40.602 17.8095 40.7242 17.6245C40.9753 17.2421 40.8711 16.7289 40.4909 16.4745L39.0992 15.5495L39.9992 14.1662L41.3992 15.0995C41.7832 15.3434 42.2918 15.2343 42.542 14.8545C42.7922 14.4746 42.6916 13.9643 42.3159 13.7079L40.9492 12.7495L41.8742 11.3579L43.2742 12.2829C43.653 12.4616 44.1055 12.3314 44.3315 11.9788C44.5574 11.6261 44.4865 11.1606 44.1659 10.8912L42.7992 9.99953L48.3326 1.6662ZM4.16591 22.5662C7.16591 18.3329 12.2492 17.9745 16.5409 21.9495C17.5674 22.8538 19.1061 22.8538 20.1326 21.9495C24.2076 18.1745 29.2992 18.1412 32.4576 22.5162L32.1659 22.9662C31.7982 22.7189 31.3471 22.6283 30.9124 22.7143C30.4777 22.8003 30.0951 23.0559 29.8492 23.4245L28.9242 24.8162C28.677 25.1839 28.5863 25.635 28.6723 26.0697C28.7583 26.5044 29.0139 26.887 29.3826 27.1329L30.1659 27.6495L27.8159 32.3579C27.4394 33.1101 27.6824 34.025 28.3826 34.4912C28.5076 34.5745 28.9159 33.8745 24.3076 40.8079C24.1843 40.9922 24.1397 41.2181 24.1834 41.4355C24.2272 41.6529 24.3559 41.8439 24.5409 41.9662C24.9233 42.2172 25.4366 42.1131 25.6909 41.7329L29.8576 35.4662L29.9409 35.5245C30.6421 35.9936 31.5832 35.8648 32.1326 35.2245L34.9826 31.8912C34.6409 43.5579 25.3159 51.7079 18.8242 46.9495C18.5314 46.7355 18.1338 46.7355 17.8409 46.9495C16.928 47.6258 15.8639 48.0692 14.7409 48.2412C9.24091 49.0745 3.54091 43.2412 2.03257 35.1829C1.13257 30.4079 1.92424 25.6829 4.16591 22.5662Z" fill="#002519"/>
<path d="M4.9999 35C5.26038 35.0076 5.50944 34.893 5.67302 34.6901C5.83661 34.4873 5.89589 34.2196 5.83324 33.9666C4.34157 27.9833 6.84157 25.75 6.96657 25.6333C7.32325 25.3411 7.37549 24.815 7.08324 24.4583C6.79099 24.1016 6.26492 24.0494 5.90824 24.3417C5.76657 24.4583 2.44157 27.2583 4.24157 34.3416C4.31889 34.7059 4.62844 34.9746 4.9999 35Z" fill="#002519"/>
<path d="M8.07503 23.3333C8.53527 23.3333 8.90837 22.9602 8.90837 22.5C8.90837 22.0398 8.53527 21.6667 8.07503 21.6667C7.6148 21.6667 7.2417 22.0398 7.2417 22.5C7.2417 22.9602 7.6148 23.3333 8.07503 23.3333Z" fill="#002519"/>
</g>
<defs>
<clipPath id="clip0">
<rect width="50" height="50" fill="white"/>
</clipPath>
</defs>
</svg>
