<svg width="50" height="50" viewBox="0 0 50 50" fill="none" xmlns="http://www.w3.org/2000/svg">
<path d="M25 17.5C26.875 17.5 28.3333 16.4 28.3333 15C28.3333 13.6 26.875 12.5 25 12.5C23.125 12.5 21.6666 13.6 21.6666 15C21.6666 16.4 23.15 17.5 25 17.5ZM25 14.1667C26.0166 14.1667 26.6666 14.6583 26.6666 15C26.6666 15.3417 26.0166 15.8333 25 15.8333C23.9833 15.8333 23.3333 15.3417 23.3333 15C23.3333 14.6583 24 14.1667 25 14.1667Z" fill="#002519"/>
<path d="M25 0C11.1929 0 0 11.1929 0 25C0 38.8071 11.1929 50 25 50C38.8071 50 50 38.8071 50 25C50 18.3696 47.3661 12.0107 42.6777 7.32233C37.9893 2.63392 31.6304 0 25 0V0ZM1.66667 25C1.66501 19.0998 3.90502 13.4194 7.93333 9.10833L14.325 15.5083C12.2833 20.425 12.6167 19.5917 12.5583 19.825C12.5 20.0583 12.5 18.2417 12.5 40.8333C12.5 42.214 13.6193 43.3333 15 43.3333H35C36.3807 43.3333 37.5 42.214 37.5 40.8333V38.7L40.8333 42.0333C34.0386 48.3106 24.1772 49.9811 15.6942 46.2919C7.21113 42.6026 1.70852 34.2504 1.66667 25ZM31.6667 9.16667H18.3333V8.33333C18.3333 7.41286 19.0795 6.66667 20 6.66667H30C30.9205 6.66667 31.6667 7.41286 31.6667 8.33333V9.16667ZM18.075 10.8333H31.9667L35.4333 19.1667H20.3667L16.3 15.1L18.075 10.8333ZM14.1667 36.6667H30.8333C31.2936 36.6667 31.6667 36.2936 31.6667 35.8333C31.6667 35.3731 31.2936 35 30.8333 35H14.1667V26.6667H20.8333C21.2936 26.6667 21.6667 26.2936 21.6667 25.8333C21.6667 25.3731 21.2936 25 20.8333 25H14.1667V20.8333H19.6583L35.8333 37.0333V40.8333C35.8333 41.2936 35.4602 41.6667 35 41.6667H15C14.5398 41.6667 14.1667 41.2936 14.1667 40.8333V36.6667ZM22.0167 20.8333H35.8333V25H30.8333C30.3731 25 30 25.3731 30 25.8333C30 26.2936 30.3731 26.6667 30.8333 26.6667H35.8333V34.6583L22.0167 20.8333ZM17.9917 19.1667H14.6L15.6 16.7667L17.9917 19.1667ZM42.0667 40.8917L37.5 36.3417C37.5 18.6167 37.5 20.0667 37.5 19.825C37.5 19.5833 37.9583 20.8667 33.3333 9.825V8.33333C33.3333 6.49238 31.8409 5 30 5H20C18.159 5 16.6667 6.49238 16.6667 8.33333V9.83333L15 13.825L9.08333 7.91667C18.2735 -0.669871 32.6155 -0.427345 41.5101 8.46501C50.4047 17.3574 50.6509 31.6993 42.0667 40.8917Z" fill="#002519"/>
</svg>
