<svg width="140" height="20" viewBox="0 0 140 20" fill="none" xmlns="http://www.w3.org/2000/svg">
<g clip-path="url(#clip0)">
<path d="M19.4692 7.1533L13.3208 6.21413L10.565 0.344131C10.3592 -0.0942025 9.64 -0.0942025 9.43417 0.344131L6.67917 6.21413L0.530836 7.1533C0.0258356 7.2308 -0.175831 7.84496 0.178336 8.20746L4.645 12.7858L3.58917 19.2583C3.505 19.7725 4.05417 20.1583 4.50834 19.9058L10 16.8708L15.4917 19.9066C15.9417 20.1566 16.4958 19.7783 16.4108 19.2591L15.355 12.7866L19.8217 8.2083C20.1758 7.84496 19.9733 7.2308 19.4692 7.1533Z" fill="#FCC8AA"/>
</g>
<g clip-path="url(#clip1)">
<path d="M49.4692 7.1533L43.3208 6.21413L40.565 0.344131C40.3592 -0.0942025 39.64 -0.0942025 39.4342 0.344131L36.6792 6.21413L30.5308 7.1533C30.0258 7.2308 29.8242 7.84496 30.1783 8.20746L34.645 12.7858L33.5892 19.2583C33.505 19.7725 34.0542 20.1583 34.5083 19.9058L40 16.8708L45.4917 19.9066C45.9417 20.1566 46.4958 19.7783 46.4108 19.2591L45.355 12.7866L49.8217 8.2083C50.1758 7.84496 49.9733 7.2308 49.4692 7.1533Z" fill="#FCC8AA"/>
</g>
<g clip-path="url(#clip2)">
<path d="M79.4692 7.1533L73.3208 6.21413L70.565 0.344131C70.3592 -0.0942025 69.64 -0.0942025 69.4342 0.344131L66.6792 6.21413L60.5308 7.1533C60.0258 7.2308 59.8242 7.84496 60.1783 8.20746L64.645 12.7858L63.5892 19.2583C63.505 19.7725 64.0542 20.1583 64.5083 19.9058L70 16.8708L75.4917 19.9066C75.9417 20.1566 76.4958 19.7783 76.4108 19.2591L75.355 12.7866L79.8217 8.2083C80.1758 7.84496 79.9733 7.2308 79.4692 7.1533Z" fill="#FCC8AA"/>
</g>
<g clip-path="url(#clip3)">
<path d="M109.469 7.1533L103.321 6.21413L100.565 0.344131C100.359 -0.0942025 99.64 -0.0942025 99.4342 0.344131L96.6792 6.21413L90.5308 7.1533C90.0258 7.2308 89.8242 7.84496 90.1783 8.20746L94.645 12.7858L93.5892 19.2583C93.505 19.7725 94.0542 20.1583 94.5083 19.9058L100 16.8708L105.492 19.9066C105.942 20.1566 106.496 19.7783 106.411 19.2591L105.355 12.7866L109.822 8.2083C110.176 7.84496 109.973 7.2308 109.469 7.1533Z" fill="#FCC8AA"/>
</g>
<g clip-path="url(#clip4)">
<path d="M139.469 7.1533L133.321 6.21413L130.565 0.344131C130.359 -0.0942025 129.64 -0.0942025 129.434 0.344131L126.679 6.21413L120.531 7.1533C120.026 7.2308 119.824 7.84496 120.178 8.20746L124.645 12.7858L123.589 19.2583C123.505 19.7725 124.054 20.1583 124.508 19.9058L130 16.8708L135.492 19.9066C135.942 20.1566 136.496 19.7783 136.411 19.2591L135.355 12.7866L139.822 8.2083C140.176 7.84496 139.973 7.2308 139.469 7.1533Z" fill="#FCC8AA"/>
</g>
<defs>
<clipPath id="clip0">
<rect width="20" height="20" fill="white"/>
</clipPath>
<clipPath id="clip1">
<rect width="20" height="20" fill="white" transform="translate(30)"/>
</clipPath>
<clipPath id="clip2">
<rect width="20" height="20" fill="white" transform="translate(60)"/>
</clipPath>
<clipPath id="clip3">
<rect width="20" height="20" fill="white" transform="translate(90)"/>
</clipPath>
<clipPath id="clip4">
<rect width="20" height="20" fill="white" transform="translate(120)"/>
</clipPath>
</defs>
</svg>
