<svg width="45" height="45" viewBox="0 0 45 45" fill="none" xmlns="http://www.w3.org/2000/svg">
<path d="M44.9893 24.8538C44.9893 24.5751 44.8393 24.318 44.5966 24.1809L44.5963 24.1808C44.5956 24.1803 44.5948 24.1799 44.5941 24.1794C44.5493 24.1498 44.5017 24.1241 44.4516 24.103L34.1846 19.5148V5.70726C34.1846 5.70059 34.1846 5.69399 34.1844 5.6874C34.1843 5.6852 34.1843 5.6831 34.1842 5.6809C34.1841 5.6765 34.1839 5.67202 34.1837 5.66763C34.1836 5.66499 34.1835 5.66235 34.1833 5.65972C34.1831 5.65409 34.1827 5.64838 34.1823 5.64275C34.182 5.6388 34.1817 5.63493 34.1813 5.63106C34.1811 5.62904 34.181 5.62693 34.1808 5.62491C34.1643 5.44895 34.0961 5.28803 33.9914 5.1576C33.9899 5.15575 33.9884 5.15391 33.9869 5.15206C33.9848 5.14951 33.9827 5.14696 33.9806 5.14441C33.9784 5.14178 33.9762 5.13914 33.9739 5.1365C33.9722 5.13457 33.9706 5.13264 33.969 5.13079C33.965 5.12622 33.961 5.12165 33.9568 5.11717C33.956 5.11629 33.9552 5.11541 33.9544 5.11453C33.9507 5.11049 33.9469 5.10644 33.9431 5.10249C33.9422 5.10152 33.9414 5.10064 33.9404 5.09968C33.9362 5.09528 33.932 5.09089 33.9277 5.08658C33.9274 5.08632 33.9271 5.08605 33.9269 5.08579C33.922 5.08096 33.9171 5.07612 33.9121 5.07138C33.9119 5.0712 33.9117 5.07111 33.9117 5.07094C33.9071 5.06663 33.9025 5.06232 33.8979 5.0581C33.897 5.05731 33.8961 5.05652 33.8952 5.05573C33.891 5.05195 33.8867 5.04809 33.8824 5.04439C33.8817 5.04378 33.881 5.04308 33.8802 5.04246C33.8754 5.03833 33.8705 5.0342 33.8656 5.03016C33.8642 5.02901 33.8628 5.02787 33.8615 5.02682C33.8582 5.02418 33.8549 5.02145 33.8515 5.01882C33.8493 5.01706 33.8471 5.0153 33.8449 5.01354C33.8423 5.01161 33.8399 5.00968 33.8373 5.00774C33.7788 4.96318 33.7145 4.92583 33.6457 4.89691L22.8599 0.0764648C22.6318 -0.0254883 22.3709 -0.0254883 22.1428 0.0764648L11.3566 4.89674C11.2879 4.92565 11.2237 4.96301 11.1651 5.00757C11.1626 5.0095 11.16 5.01144 11.1576 5.01337C11.1553 5.01513 11.1531 5.01688 11.1509 5.01864C11.1476 5.02128 11.1443 5.02392 11.141 5.02664C11.1396 5.02778 11.1381 5.02884 11.1368 5.02998C11.1319 5.03402 11.1271 5.03815 11.1222 5.04228C11.1215 5.0429 11.1208 5.04352 11.12 5.04422C11.1157 5.04791 11.1114 5.05178 11.1072 5.05556C11.1063 5.05635 11.1055 5.05714 11.1046 5.05793C11.0999 5.06215 11.0953 5.06645 11.0908 5.07076C11.0906 5.07094 11.0905 5.07102 11.0903 5.0712C11.0853 5.07595 11.0804 5.08078 11.0756 5.08561C11.0753 5.08588 11.075 5.08614 11.0748 5.08641C11.0705 5.09071 11.0663 5.09511 11.062 5.0995C11.0612 5.10047 11.0602 5.10135 11.0593 5.10231C11.0555 5.10627 11.0517 5.11031 11.0481 5.11436C11.0473 5.11523 11.0464 5.11611 11.0456 5.11699C11.0416 5.12147 11.0375 5.12604 11.0335 5.13061C11.0318 5.13246 11.0302 5.13439 11.0285 5.13633C11.0263 5.13896 11.0241 5.1416 11.0219 5.14424C11.0198 5.14679 11.0176 5.14934 11.0155 5.15188C11.014 5.15373 11.0126 5.15558 11.0111 5.15742C10.9064 5.28785 10.8381 5.44869 10.8217 5.62474C10.8216 5.62676 10.8214 5.62887 10.8212 5.63089C10.8209 5.63484 10.8205 5.63871 10.8202 5.64258C10.8198 5.6482 10.8195 5.65392 10.8192 5.65954C10.819 5.66218 10.8189 5.66481 10.8188 5.66745C10.8187 5.67185 10.8185 5.67633 10.8183 5.68072C10.8182 5.68292 10.8182 5.68503 10.8181 5.68723C10.818 5.69382 10.8179 5.7005 10.8179 5.70709V19.5145L0.550932 24.1029C0.550669 24.103 0.550405 24.1031 0.550141 24.1033C0.225474 24.2394 0.0133057 24.5568 0.0133057 24.9089V24.913V39.2902C0.0133057 39.6368 0.217036 39.9511 0.533618 40.0925C0.533618 40.0925 11.3394 44.9216 11.34 44.9219L11.3451 44.9241C11.5677 45.0247 11.8227 45.0252 12.0456 44.9254L12.0554 44.921L22.5013 40.2528L32.9473 44.9212C32.9474 44.9212 32.9609 44.9263 32.9827 44.9346C33.2029 45.0183 33.4478 45.0136 33.6643 44.9212C33.6644 44.9212 33.6644 44.9211 33.6644 44.9211L44.469 40.0925C44.7855 39.9511 44.9893 39.6368 44.9893 39.2902V24.913V24.8538ZM33.3059 28.779L24.6555 24.913L33.3059 21.0472L41.9564 24.913L33.3059 28.779ZM22.5013 14.0239C22.9867 14.0239 23.3802 13.6304 23.3802 13.1451V11.1058L32.427 7.0628V19.5146L23.3802 23.5577V21.0911C23.3802 20.6057 22.9867 20.2122 22.5013 20.2122C22.016 20.2122 21.6225 20.6057 21.6225 21.0911V23.5577L12.5757 19.5146V7.0628L21.6225 11.1058V13.1451C21.6224 13.6305 22.016 14.0239 22.5013 14.0239ZM22.5013 1.84148L31.1519 5.70744L22.5013 9.57322L13.8508 5.70735L22.5013 1.84148ZM11.6968 21.0472L20.3473 24.913L11.6968 28.779L3.04632 24.913L11.6968 21.0472ZM1.77103 26.2685L10.8417 30.3222C10.8261 30.3877 10.8179 30.4559 10.8179 30.5261V42.7634L1.77103 38.7203V26.2685ZM12.5518 30.3221L21.6224 26.2685V38.7204L12.5756 42.7634V30.526C12.5756 30.4559 12.5673 30.3876 12.5518 30.3221ZM23.3802 26.2685L32.4508 30.3222C32.4353 30.3877 32.427 30.4559 32.427 30.5261V42.7634L23.3802 38.7203V26.2685ZM34.1847 42.7634V30.526C34.1847 30.4558 34.1765 30.3875 34.1609 30.3221L43.2316 26.2684V38.7203L34.1847 42.7634Z" fill="#002519"/>
<path d="M22.5 17.9806C22.1281 17.9806 21.7871 17.7368 21.6677 17.3842C21.5552 17.0519 21.6563 16.6725 21.9205 16.4412C22.2085 16.189 22.6386 16.1548 22.9638 16.3559C23.2754 16.5488 23.4366 16.93 23.3582 17.2879C23.2708 17.687 22.9093 17.9806 22.5 17.9806Z" fill="#002519"/>
</svg>
