<svg width="1761" height="580" fill="none" xmlns="http://www.w3.org/2000/svg"><path d="M0 425.65l38.782-46.462V71.56L0 25.097V20.24h189.869c27.37 0 51.272 2.943 71.704 8.829 20.432 5.885 37.442 14.067 51.032 24.523 13.589 10.455 23.709 22.896 30.361 37.347 6.651 14.45 9.976 30.313 9.976 47.611 0 19.187-3.804 36.533-11.388 52.037-7.608 15.503-18.733 28.686-33.352 39.619-14.642 10.934-32.777 19.38-54.453 25.385-21.652 5.981-46.558 8.972-74.694 8.972h-21.676v-15.121l17.393-.287c10.073-.574 19.858-2.991 29.356-7.273 9.499-4.283 17.968-10.79 25.385-19.523 7.417-8.733 13.398-20.001 17.968-33.782 4.569-13.781 6.842-30.552 6.842-50.315 0-33.83-7.656-59.43-22.992-76.823-15.336-17.393-39.309-26.078-71.871-26.078h-27.178v343.827l44.476 46.462v4.857H0v-4.857zm629.061-58.735c-6.842 10.838-14.498 20.575-22.944 29.212-8.469 8.661-18.016 16.054-28.662 22.25-10.647 6.173-22.442 10.886-35.361 14.116-12.92 3.23-27.179 4.857-42.754 4.857-21.102 0-40.242-3.613-57.444-10.838-17.203-7.225-31.893-17.25-44.046-30.074-12.154-12.824-21.533-28.184-28.088-46.056-6.556-17.872-9.834-37.538-9.834-59.023 0-23.183 3.613-44.428 10.838-63.712 7.226-19.284 17.346-35.816 30.361-49.597 13.015-13.78 28.615-24.475 46.774-32.083 18.159-7.608 38.064-11.412 59.717-11.412 20.336 0 38.447 3.469 54.309 10.407 15.863 6.938 29.309 16.389 40.338 28.375 11.03 11.963 19.379 25.983 25.097 42.036 5.695 16.078 8.566 33.208 8.566 51.463H449.743a26.244 26.244 0 00-.287 3.709v3.995c1.148 37.06 9.977 65.674 26.509 85.819 16.532 20.145 39.428 30.218 68.713 30.218 8.565 0 16.771-.766 24.666-2.273 7.896-1.508 15.264-3.565 22.107-6.125s13.063-5.455 18.662-8.685c5.598-3.23 10.503-6.651 14.689-10.264l4.259 3.685zm-126.013-219.8c-8.374 0-15.767 2.608-22.226 7.848-6.46 5.239-11.891 12.656-16.246 22.25-4.378 9.594-7.799 21.293-10.263 35.074-2.465 13.781-3.9 24.428-4.283 41.558l99.504-1.196c0-18.614-.957-34.596-2.847-47.898-1.89-13.303-4.761-24.236-8.541-32.778-3.804-8.565-8.613-14.833-14.403-18.829-5.814-4.043-12.704-6.029-20.695-6.029zm331.577 246.906c-11.795 12.92-25.576 23.375-41.342 31.366-15.791 7.991-32.61 11.987-50.458 11.987-11.03 0-21.198-1.436-30.505-4.283-9.306-2.847-17.345-6.986-24.092-12.393-6.747-5.407-12.035-12.011-15.815-19.81-3.804-7.8-5.694-16.724-5.694-26.796 0-15.958 4.522-30.122 13.542-42.467 9.019-12.346 21.102-22.992 36.198-31.94 15.121-8.924 32.634-16.054 52.612-21.389 19.953-5.311 40.959-8.924 63.018-10.838v-35.959c0-8.925-1.292-17.107-3.852-24.524-2.56-7.416-6.603-13.733-12.106-18.948-5.503-5.216-12.537-9.259-21.102-12.106-8.541-2.847-18.805-4.283-30.791-4.283-13.303 0-25.887 1.627-37.778 4.857-11.891 3.23-24.093 8.374-36.629 15.384l-3.996-5.407c15.408-15.384 34.213-27.801 56.439-37.204 22.251-9.402 47.037-14.116 74.407-14.116 20.528 0 37.443 2.417 50.745 7.274 13.303 4.856 23.806 11.675 31.51 20.527 7.704 8.829 13.063 19.38 16.101 31.653 3.039 12.25 4.57 25.696 4.57 40.338v167.523l15.575 30.193-101.37.814.813-39.453zm-43.615 1.986c16.149 0 29.834-4.378 41.055-13.111V278.272c-12.537 2.081-23.853 5.263-33.926 9.546-10.072 4.283-18.637 9.546-25.647 15.815-7.034 6.268-12.441 13.493-16.245 21.676-3.804 8.182-5.694 17.106-5.694 26.796 0 13.111 3.182 23.709 9.546 31.796 6.34 8.063 16.651 12.106 30.911 12.106zm308.9-258.294v51.295c3.99-7.417 9.49-14.499 16.53-21.245 7.03-6.747 14.93-12.681 23.66-17.825a128.93 128.93 0 0127.37-12.106c9.5-2.942 18.73-4.426 27.66-4.426 4.38 0 8.59.287 12.68.862 4.09.574 8.2 1.722 12.39 3.421l-15.1 91.226h-4.57c-3.61-4.761-7.46-9.69-11.55-14.833-4.09-5.144-8.66-9.834-13.69-14.116-5.04-4.283-10.64-7.752-16.82-10.408-6.17-2.655-13.06-3.995-20.67-3.995-8.56 0-16.05 1.962-22.53 5.838-6.46 3.899-11.61 8.23-15.39 12.967v185.898l36.2 35.911v4.283H977.29v-4.283l35.07-35.624V191.257l-31.936-26.796v-4.57l116.326-25.384 3.16 3.206zM1357.08 3.134v387.179l35.07 35.912v4.282h-157.67v-4.282l35.08-35.625V56.726l-26.8-26.509V25.36L1353.66 0l3.42 3.134zm65.79 505.201c3.04-.574 7.23-1.052 12.54-1.435a603 603 0 0017.82-1.579c6.56-.67 13.4-1.531 20.53-2.56a146.07 146.07 0 0021.1-4.713c6.94-2.106 13.4-4.809 19.38-8.135 5.98-3.325 11.08-7.56 15.24-12.68l13.69-31.079-112.05-263.989-30.5-35.624v-4.57h157.67v4.57l-30.22 35.911 61.58 161.662 65.01-161.662-30.51-35.911v-4.57h77.26v4.57l-34.79 36.198L1558 441.608c-10.84 25.648-21.34 46.989-31.51 64-10.17 17.011-19.57 30.744-28.23 41.199-8.66 10.455-16.34 18.111-23.09 22.944-6.75 4.857-12.2 7.943-16.39 9.259l-38.21-65.004 2.3-5.671zm291.31-71.799c25.79 0 46.7-20.909 46.7-46.701 0-25.793-20.91-46.702-46.7-46.702-25.79 0-46.7 20.909-46.7 46.702 0 25.792 20.91 46.701 46.7 46.701z" fill="#D6C5BF" fill-opacity=".2"/></svg>