<svg width="1761" height="580" viewBox="0 0 1761 580" fill="none" xmlns="http://www.w3.org/2000/svg">
<path d="M0 425.65L38.7825 379.188V71.5595L0 25.097V20.2402H189.869C217.239 20.2402 241.141 23.183 261.573 29.0686C282.005 34.9541 299.015 43.1365 312.605 53.5917C326.194 64.047 336.314 76.488 342.966 90.9387C349.617 105.389 352.942 121.252 352.942 138.55C352.942 157.737 349.138 175.083 341.554 190.587C333.946 206.09 322.821 219.273 308.202 230.206C293.56 241.14 275.425 249.586 253.749 255.591C232.097 261.572 207.191 264.563 179.055 264.563H157.379V249.442L174.772 249.155C184.845 248.581 194.63 246.164 204.128 241.882C213.627 237.599 222.096 231.092 229.513 222.359C236.93 213.626 242.911 202.358 247.481 188.577C252.05 174.796 254.323 158.025 254.323 138.262C254.323 104.432 246.667 78.8327 231.331 61.4392C215.995 44.0457 192.022 35.3609 159.46 35.3609H132.282V379.188L176.758 425.65V430.507H0V425.65Z" fill="#D6C5BF" fill-opacity="0.2"/>
<path d="M629.061 366.915C622.219 377.753 614.563 387.49 606.117 396.127C597.648 404.788 588.101 412.181 577.455 418.377C566.808 424.55 555.013 429.263 542.094 432.493C529.174 435.723 514.915 437.35 499.34 437.35C478.238 437.35 459.098 433.737 441.896 426.512C424.693 419.287 410.003 409.262 397.85 396.438C385.696 383.614 376.317 368.254 369.762 350.382C363.206 332.51 359.928 312.844 359.928 291.359C359.928 268.176 363.541 246.931 370.766 227.647C377.992 208.363 388.112 191.831 401.127 178.05C414.142 164.27 429.742 153.575 447.901 145.967C466.06 138.359 485.965 134.555 507.618 134.555C527.954 134.555 546.065 138.024 561.927 144.962C577.79 151.9 591.236 161.351 602.265 173.337C613.295 185.3 621.644 199.32 627.362 215.373C633.057 231.451 635.928 248.581 635.928 266.836H449.743C449.552 268.176 449.456 269.396 449.456 270.545C449.456 271.693 449.456 273.009 449.456 274.54C450.604 311.6 459.433 340.214 475.965 360.359C492.497 380.504 515.393 390.577 544.678 390.577C553.243 390.577 561.449 389.811 569.344 388.304C577.24 386.796 584.608 384.739 591.451 382.179C598.294 379.619 604.514 376.724 610.113 373.494C615.711 370.264 620.616 366.843 624.802 363.23L629.061 366.915ZM503.048 147.115C494.674 147.115 487.281 149.723 480.822 154.963C474.362 160.202 468.931 167.619 464.576 177.213C460.198 186.807 456.777 198.506 454.313 212.287C451.848 226.068 450.413 236.715 450.03 253.845L549.534 252.649C549.534 234.035 548.577 218.053 546.687 204.751C544.797 191.448 541.926 180.515 538.146 171.973C534.342 163.408 529.533 157.14 523.743 153.144C517.929 149.101 511.039 147.115 503.048 147.115Z" fill="#D6C5BF" fill-opacity="0.2"/>
<path d="M834.625 394.021C822.83 406.941 809.049 417.396 793.283 425.387C777.492 433.378 760.673 437.374 742.825 437.374C731.795 437.374 721.627 435.938 712.32 433.091C703.014 430.244 694.975 426.105 688.228 420.698C681.481 415.291 676.193 408.687 672.413 400.888C668.609 393.088 666.719 384.164 666.719 374.092C666.719 358.134 671.241 343.97 680.261 331.625C689.28 319.279 701.363 308.633 716.459 299.685C731.58 290.761 749.093 283.631 769.071 278.296C789.024 272.985 810.03 269.372 832.089 267.458V231.499C832.089 222.574 830.797 214.392 828.237 206.975C825.677 199.559 821.634 193.242 816.131 188.027C810.628 182.811 803.594 178.768 795.029 175.921C786.488 173.074 776.224 171.638 764.238 171.638C750.935 171.638 738.351 173.265 726.46 176.495C714.569 179.725 702.367 184.869 689.831 191.879L685.835 186.472C701.243 171.088 720.048 158.671 742.274 149.268C764.525 139.866 789.311 135.152 816.681 135.152C837.209 135.152 854.124 137.569 867.426 142.426C880.729 147.282 891.232 154.101 898.936 162.953C906.64 171.782 911.999 182.333 915.037 194.606C918.076 206.856 919.607 220.302 919.607 234.944V402.467L935.182 432.66L833.812 433.474L834.625 394.021ZM791.01 396.007C807.159 396.007 820.844 391.629 832.065 382.896V278.272C819.528 280.353 808.212 283.535 798.139 287.818C788.067 292.101 779.502 297.364 772.492 303.633C765.458 309.901 760.051 317.126 756.247 325.309C752.443 333.491 750.553 342.415 750.553 352.105C750.553 365.216 753.735 375.814 760.099 383.901C766.439 391.964 776.75 396.007 791.01 396.007Z" fill="#D6C5BF" fill-opacity="0.2"/>
<path d="M1099.91 137.713V189.008C1103.9 181.591 1109.4 174.509 1116.44 167.763C1123.47 161.016 1131.37 155.082 1140.1 149.938C1148.83 144.795 1157.97 140.775 1167.47 137.832C1176.97 134.89 1186.2 133.406 1195.13 133.406C1199.51 133.406 1203.72 133.693 1207.81 134.268C1211.9 134.842 1216.01 135.99 1220.2 137.689L1205.1 228.915H1200.53C1196.92 224.154 1193.07 219.225 1188.98 214.082C1184.89 208.938 1180.32 204.248 1175.29 199.966C1170.25 195.683 1164.65 192.214 1158.47 189.558C1152.3 186.903 1145.41 185.563 1137.8 185.563C1129.24 185.563 1121.75 187.525 1115.27 191.401C1108.81 195.3 1103.66 199.631 1099.88 204.368V390.266L1136.08 426.177V430.46H977.29V426.177L1012.36 390.553V191.257L980.424 164.461V159.891L1096.75 134.507L1099.91 137.713Z" fill="#D6C5BF" fill-opacity="0.2"/>
<path d="M1357.08 3.13418V390.313L1392.15 426.225V430.507H1234.48V426.225L1269.56 390.6V56.7263L1242.76 30.2173V25.3605L1353.66 0L1357.08 3.13418Z" fill="#D6C5BF" fill-opacity="0.2"/>
<path d="M1422.87 508.335C1425.91 507.761 1430.1 507.283 1435.41 506.9C1440.72 506.517 1446.68 505.991 1453.23 505.321C1459.79 504.651 1466.63 503.79 1473.76 502.761C1480.89 501.708 1487.92 500.153 1494.86 498.048C1501.8 495.942 1508.26 493.239 1514.24 489.913C1520.22 486.588 1525.32 482.353 1529.48 477.233L1543.17 446.154L1431.12 182.165L1400.62 146.541V141.971H1558.29V146.541L1528.07 182.452L1589.65 344.114L1654.66 182.452L1624.15 146.541V141.971H1701.41V146.541L1666.62 182.739L1558 441.608C1547.16 467.256 1536.66 488.597 1526.49 505.608C1516.32 522.619 1506.92 536.352 1498.26 546.807C1489.6 557.262 1481.92 564.918 1475.17 569.751C1468.42 574.608 1462.97 577.694 1458.78 579.01L1420.57 514.006L1422.87 508.335Z" fill="#D6C5BF" fill-opacity="0.2"/>
<path d="M1714.18 436.536C1739.97 436.536 1760.88 415.627 1760.88 389.835C1760.88 364.042 1739.97 343.133 1714.18 343.133C1688.39 343.133 1667.48 364.042 1667.48 389.835C1667.48 415.627 1688.39 436.536 1714.18 436.536Z" fill="#D6C5BF" fill-opacity="0.2"/>
</svg>
